<svg width="281" height="154" viewBox="0 0 281 154" fill="none" xmlns="http://www.w3.org/2000/svg">
<path opacity="0.2" d="M-83.7799 118.438L-83.193 119.025L-82.6061 118.438L-83.193 117.851L-83.7799 118.438ZM-83.7799 144.928L-83.193 145.515L-82.6061 144.928L-83.193 144.268L-83.7799 144.928ZM-83.7799 131.94L-83.193 132.527L-82.6061 131.94L-83.193 131.353L-83.7799 131.94ZM-83.8533 157.917L-83.2664 158.504L-82.6795 157.917L-83.2664 157.33L-83.8533 157.917ZM-84 209.651L-83.4131 210.238L-82.8262 209.651L-83.4131 209.064L-84 209.651ZM-83.9266 170.832L-83.3397 171.419L-82.7528 170.832L-83.3397 170.245L-83.9266 170.832ZM-83.9266 196.662L-83.3397 197.249L-82.7528 196.662L-83.3397 196.075L-83.9266 196.662ZM-83.9266 183.747L-83.3397 184.334L-82.7528 183.747L-83.2664 183.16L-83.9266 183.747ZM-76.0035 73.0879L-76.8105 72.2807L-77.6175 73.0879L-76.8105 73.8951L-76.0035 73.0879ZM-76.0769 60.1728L-76.8839 59.3656L-77.6909 60.1728L-76.8839 60.98L-76.0769 60.1728ZM-83.7799 105.449L-83.193 106.036L-82.6061 105.449L-83.193 104.862L-83.7799 105.449ZM-76.1502 47.1843L-76.8839 46.4505L-77.6175 47.1843L-76.8839 47.9181L-76.1502 47.1843ZM-83.8533 92.4606L-83.2664 93.0477L-82.6795 92.4606L-83.2664 91.8736L-83.8533 92.4606ZM-76.297 34.2691L-76.9572 33.6821L-77.5441 34.2691L-76.9572 34.9296L-76.297 34.2691ZM-77.5441 98.9916L-76.7371 99.7988L-75.9302 98.9916L-76.7371 98.1844L-77.5441 98.9916ZM-77.6175 86.0031L-76.8105 86.8103L-76.0035 86.0031L-76.8105 85.1959L-77.6175 86.0031ZM-83.9266 66.6304L-83.3397 67.2174L-82.7528 66.6304L-83.3397 66.0433L-83.9266 66.6304ZM-82.8262 40.7267L-83.4131 40.1397L-84 40.7267L-83.4131 41.3138L-82.8262 40.7267ZM-83.9266 53.7152L-83.3397 54.3023L-82.7528 53.7152L-83.3397 53.1282L-83.9266 53.7152ZM-83.9266 79.5455L-83.3397 80.1325L-82.7528 79.5455L-83.2664 78.9584L-83.9266 79.5455ZM-64.8525 125.189L-63.752 126.289L-62.6516 125.189L-63.752 124.088L-64.8525 125.189ZM-64.7791 138.397L-63.752 139.425L-62.725 138.397L-63.752 137.37L-64.7791 138.397ZM-64.8525 164.301L-63.8254 165.328L-62.7983 164.301L-63.8254 163.274L-64.8525 164.301ZM-64.8525 151.313L-63.752 152.34L-62.725 151.313L-63.752 150.285L-64.8525 151.313ZM-77.5441 111.98L-76.7371 112.787L-75.9302 111.98L-76.7371 111.173L-77.5441 111.98ZM-64.9258 177.29L-63.8988 178.317L-62.8717 177.29L-63.8988 176.262L-64.9258 177.29ZM-64.8525 203.12L-63.9721 204L-63.0918 203.046L-63.9721 202.166L-64.8525 203.12ZM-64.9258 190.131L-63.9721 191.085L-63.0184 190.131L-63.9721 189.177L-64.9258 190.131ZM-58.2499 235.408L-57.663 235.995L-57.0761 235.408L-57.663 234.821L-58.2499 235.408ZM-58.3966 157.77L-57.3695 158.797L-56.3425 157.77L-57.3695 156.743L-58.3966 157.77ZM-58.3966 144.855L-57.3695 145.882L-56.3425 144.855L-57.3695 143.828L-58.3966 144.855ZM-64.8525 216.035L-64.1189 216.769L-63.3852 216.035L-64.1189 215.301L-64.8525 216.035ZM-77.6175 216.108L-77.0306 216.695L-76.4437 216.108L-76.9572 215.448L-77.6175 216.108ZM-58.3232 105.523L-57.2962 106.55L-56.2691 105.523L-57.2962 104.495L-58.3232 105.523ZM-58.47 196.589L-57.5163 197.543L-56.5626 196.589L-57.5163 195.635L-58.47 196.589ZM-58.3966 209.577L-57.5163 210.531L-56.6359 209.577L-57.5163 208.623L-58.3966 209.577ZM-58.5433 183.674L-57.4429 184.774L-56.3425 183.674L-57.4429 182.573L-58.5433 183.674ZM-58.3966 222.346L-57.663 223.08L-56.9294 222.346L-57.663 221.612L-58.3966 222.346ZM-58.3966 170.759L-57.3695 171.786L-56.3425 170.759L-57.3695 169.731L-58.3966 170.759ZM-77.5441 151.386L-76.7371 152.193L-75.9302 151.386L-76.7371 150.579L-77.5441 151.386ZM-71.1616 222.493L-70.5747 223.08L-69.9878 222.493L-70.5747 221.905L-71.1616 222.493ZM-77.5441 138.397L-76.7371 139.205L-75.9302 138.397L-76.7371 137.59L-77.5441 138.397ZM-77.6175 125.189L-76.7371 126.069L-75.8568 125.189L-76.7371 124.308L-77.6175 125.189ZM-64.7791 228.877L-64.1922 229.464L-63.6053 228.877L-64.1922 228.29L-64.7791 228.877ZM-77.6175 203.193L-76.8839 203.927L-76.1502 203.193L-76.8839 202.459L-77.6175 203.193ZM-77.6175 190.205L-76.8105 191.012L-76.0035 190.205L-76.8105 189.398L-77.6175 190.205ZM-77.6909 177.29L-76.8839 178.097L-76.0035 177.29L-76.8105 176.482L-77.6909 177.29ZM-77.6909 164.374L-76.8839 165.182L-76.0769 164.374L-76.8839 163.567L-77.6909 164.374ZM-71.0883 144.855L-70.2079 145.736L-69.4009 144.928L-70.2079 144.121L-71.0883 144.855ZM-71.0883 131.94L-70.2813 132.747L-69.4743 131.94L-70.2813 131.059L-71.0883 131.94ZM-71.0883 118.438L-70.2079 119.318L-69.4009 118.511L-70.2079 117.704L-71.0883 118.438ZM-71.235 183.674L-70.3546 184.554L-69.5477 183.747L-70.3546 182.867L-71.235 183.674ZM-71.0883 157.844L-70.2813 158.651L-69.4743 157.844L-70.2813 157.036L-71.0883 157.844ZM-71.1616 196.662L-70.3546 197.469L-69.621 196.662L-70.3546 195.855L-71.1616 196.662ZM-71.1616 209.577L-70.428 210.311L-69.6944 209.577L-70.428 208.844L-71.1616 209.577ZM-31.5461 91.1398L-33.0133 92.6074L-31.5461 94.075L-30.0788 92.6074L-31.5461 91.1398ZM-37.1949 21.4274L-38.0753 20.4734L-39.029 21.4274L-38.0753 22.308L-37.1949 21.4274ZM-37.3417 8.43887L-38.0753 7.70505L-38.8089 8.43887L-38.0753 9.17268L-37.3417 8.43887ZM-37.1216 34.4159L-38.222 33.3152L-39.3224 34.3425L-38.222 35.4432L-37.1216 34.4159ZM-39.3958 99.065L-37.9286 100.533L-36.4613 99.065L-37.9286 97.5973L-39.3958 99.065ZM-36.7548 60.4663L-38.0753 59.1454L-39.3958 60.4663L-38.0753 61.7872L-36.7548 60.4663ZM-39.4692 86.2232L-38.0019 87.6908L-36.5347 86.2232L-38.0019 84.7556L-39.4692 86.2232ZM-39.4692 73.3081L-38.0019 74.7757L-36.5347 73.3081L-38.0019 71.8404L-39.4692 73.3081ZM-36.8281 47.331L-38.0753 46.0835L-39.3224 47.331L-38.0753 48.5785L-36.8281 47.331ZM-43.7242 27.9583L-44.6045 27.0044L-45.5582 27.9583L-44.6045 28.8389L-43.7242 27.9583ZM-43.7975 14.9698L-44.5312 14.236L-45.2648 14.9698L-44.5312 15.7036L-43.7975 14.9698ZM-43.9443 1.90792L-44.5312 1.32087L-45.1914 1.90792L-44.6045 2.49497L-43.9443 1.90792ZM-43.4307 40.8001L-44.5312 39.6994L-45.5582 40.8001L-44.4578 41.9008L-43.4307 40.8001ZM-45.705 79.6923L-44.4578 80.9397L-43.2106 79.6923L-44.4578 78.4448L-45.705 79.6923ZM-45.6316 105.523L-44.3844 106.77L-43.1373 105.523L-44.3844 104.275L-45.6316 105.523ZM-44.3844 91.3599L-45.6316 92.6074L-44.3844 93.8549L-43.1373 92.6074L-44.3844 91.3599ZM-43.3574 53.862L-44.5312 52.6879L-45.705 53.862L-44.5312 55.0361L-43.3574 53.862ZM-43.1373 144.855L-44.3844 143.607L-45.6316 144.855L-44.3844 146.102L-43.1373 144.855ZM-29.9321 105.523L-31.3993 104.055L-32.8666 105.523L-31.3993 106.99L-29.9321 105.523ZM-23.3295 73.3081L-25.0902 71.6203L-26.7775 73.3081L-25.0902 74.9958L-23.3295 73.3081ZM-39.3958 112.053L-37.9286 113.521L-36.4613 112.053L-37.9286 110.586L-39.3958 112.053ZM-33.0133 79.7656L-31.5461 81.2333L-30.0788 79.7656L-31.5461 78.298L-33.0133 79.7656ZM-23.6963 47.331L-25.0902 45.9368L-26.4841 47.331L-25.0902 48.7253L-23.6963 47.331ZM-23.9164 34.3425L-25.1636 33.095L-26.4107 34.3425L-25.1636 35.59L-23.9164 34.3425ZM-23.6963 60.4663L-25.2369 58.9253L-26.7775 60.4663L-25.2369 62.0073L-23.6963 60.4663ZM-51.7207 241.939L-51.1338 242.526L-50.5469 241.939L-51.1338 241.352L-51.7207 241.939ZM-30.0055 66.8505L-31.5461 65.3095L-33.0867 66.8505L-31.5461 68.3915L-30.0055 66.8505ZM-30.2255 53.862L-31.6194 52.5411L-32.9399 53.862L-31.6194 55.1828L-30.2255 53.862ZM-30.7391 1.90792L-31.4727 1.10072L-32.2797 1.90792L-31.4727 2.64173L-30.7391 1.90792ZM-30.0055 157.77L-31.4727 156.302L-32.9399 157.77L-31.4727 159.238L-30.0055 157.77ZM-30.2989 40.8735L-31.5461 39.626L-32.7932 40.8735L-31.5461 42.121L-30.2989 40.8735ZM-30.6657 14.8964L-31.6194 14.0159L-32.4998 14.8964L-31.6194 15.8504L-30.6657 14.8964ZM-30.5924 27.885L-31.6928 26.7842L-32.7932 27.885L-31.6928 28.9857L-30.5924 27.885ZM-63.6053 21.5008L-64.1922 20.9137L-64.7791 21.5008L-64.1922 22.0878L-63.6053 21.5008ZM-43.2106 66.7771L-44.5312 65.4562L-45.8517 66.7771L-44.5312 68.098L-43.2106 66.7771ZM-62.9451 60.2462L-63.8988 59.2922L-64.8525 60.2462L-63.8988 61.2001L-62.9451 60.2462ZM-63.0184 47.2577L-63.8988 46.3037L-64.8525 47.2577L-63.8988 48.1382L-63.0184 47.2577ZM-56.4892 53.7886L-57.4429 52.8346L-58.3966 53.7886L-57.3695 54.7426L-56.4892 53.7886ZM-63.2385 34.4159L-63.9721 33.6821L-64.7058 34.4159L-63.9721 35.1497L-63.2385 34.4159ZM-56.3425 66.7037L-57.4429 65.603L-58.5433 66.7037L-57.4429 67.8045L-56.3425 66.7037ZM-64.7791 111.98L-63.752 113.007L-62.725 111.98L-63.752 110.953L-64.7791 111.98ZM-64.7791 99.065L-63.752 100.092L-62.725 99.065L-63.752 98.0376L-64.7791 99.065ZM-64.8525 86.0764L-63.8254 87.1038L-62.7983 86.0764L-63.8254 85.0491L-64.8525 86.0764ZM-69.6944 40.8001L-70.428 40.0663L-71.1616 40.8001L-70.428 41.5339L-69.6944 40.8001ZM-71.1616 53.7886L-70.3546 54.5224L-69.621 53.7152L-70.3546 52.908L-71.1616 53.7886ZM-69.9145 27.885L-70.5014 27.2979L-71.0883 27.885L-70.5014 28.472L-69.9145 27.885ZM-69.4743 66.7037L-70.3546 65.8232L-71.1616 66.7037L-70.3546 67.5109L-69.4743 66.7037ZM-71.0149 105.523L-70.2079 106.33L-69.4009 105.523L-70.2079 104.715L-71.0149 105.523ZM-70.3546 78.7383L-71.1616 79.5455L-70.3546 80.4261L-69.5477 79.6189L-70.3546 78.7383ZM-62.8717 73.0879L-63.8988 72.0606L-64.9258 73.0879L-63.8988 74.1153L-62.8717 73.0879ZM-71.0883 92.534L-70.2813 93.3412L-69.4743 92.534L-70.2813 91.7268L-71.0883 92.534ZM-69.5477 170.832L-70.3546 170.025L-71.1616 170.832L-70.3546 171.639L-69.5477 170.832ZM-50.3268 21.5008L-51.0604 20.7669L-51.794 21.5008L-51.0604 22.2346L-50.3268 21.5008ZM-50.4735 8.43887L-51.0604 7.77843L-51.6473 8.36549L-51.0604 8.95254L-50.4735 8.43887ZM-50.2534 34.4893L-51.1338 33.5353L-52.0875 34.4893L-51.1338 35.3699L-50.2534 34.4893ZM-49.8866 60.3195L-51.0604 59.1454L-52.2342 60.3195L-51.0604 61.4937L-49.8866 60.3195ZM-52.0141 47.2577L-50.9137 48.3584L-49.8132 47.2577L-50.9137 46.1569L-52.0141 47.2577ZM-52.0875 86.1498L-50.8403 87.3973L-49.5931 86.1498L-50.8403 84.9023L-52.0875 86.1498ZM-50.8403 97.8908L-52.0875 99.1383L-50.8403 100.386L-49.5931 99.1383L-50.8403 97.8908ZM-52.0875 111.98L-50.8403 113.228L-49.5931 111.98L-50.8403 110.733L-52.0875 111.98ZM-58.3966 40.8001L-57.5163 41.6807L-56.6359 40.8001L-57.5163 39.9195L-58.3966 40.8001ZM-57.0027 14.9698L-57.5896 14.3828L-58.1765 14.9698L-57.5896 15.5569L-57.0027 14.9698ZM-56.856 28.0317L-57.5896 27.2979L-58.3232 28.0317L-57.5896 28.7655L-56.856 28.0317ZM-58.3966 79.6189L-57.3695 80.6462L-56.3425 79.6189L-57.3695 78.5915L-58.3966 79.6189ZM-57.2962 117.41L-58.3232 118.438L-57.2962 119.465L-56.2691 118.438L-57.2962 117.41ZM-49.6665 73.2347L-50.9137 71.9872L-52.1608 73.2347L-50.9137 74.4822L-49.6665 73.2347ZM-58.3232 131.94L-57.2962 132.967L-56.2691 131.94L-57.2962 130.912L-58.3232 131.94ZM-56.2691 92.6074L-57.2962 91.58L-58.3232 92.6074L-57.2962 93.6347L-56.2691 92.6074ZM-32.9399 196.516L-31.6194 197.836L-30.2989 196.516L-31.6194 195.121L-32.9399 196.516ZM-7.48327 118.658L-5.50249 120.639L-3.52172 118.658L-5.50249 116.676L-7.48327 118.658ZM-7.48327 131.72L-5.50249 133.701L-3.52172 131.72L-5.50249 129.738L-7.48327 131.72ZM-7.33655 196.516L-5.64922 198.203L-3.96189 196.516L-5.64922 194.828L-7.33655 196.516ZM-7.63 183.527L-5.79594 185.362L-3.96189 183.527L-5.86931 181.692L-7.63 183.527ZM-7.77672 170.465L-5.79594 172.446L-3.81516 170.465L-5.79594 168.484L-7.77672 170.465ZM-7.70336 157.623L-5.64922 159.678L-3.59508 157.623L-5.64922 155.569L-7.70336 157.623ZM-7.55664 144.708L-5.50249 146.763L-3.44836 144.708L-5.50249 142.727L-7.55664 144.708ZM-1.0274 190.058L0.806648 191.966L2.6407 190.131L0.806648 188.223L-1.0274 190.058ZM-1.24749 176.996L0.806648 179.051L2.86079 176.996L0.806648 174.941L-1.24749 176.996ZM-0.660591 216.035L0.953377 217.649L2.56734 216.035L0.953377 214.421L-0.660591 216.035ZM-0.80732 202.973L0.880013 204.661L2.56734 202.973L0.880013 201.285L-0.80732 202.973ZM-0.147057 242.232L1.1001 243.48L2.34725 242.232L1.1001 240.985L-0.147057 242.232ZM-0.367142 229.17L1.02674 230.565L2.42062 229.17L1.02674 227.776L-0.367142 229.17ZM-10.1977 138.251L-12.0317 136.416L-13.8658 138.251L-12.0317 140.085L-10.1977 138.251ZM-14.0859 176.996L-12.2518 178.831L-10.4178 176.996L-12.2518 175.162L-14.0859 176.996ZM-13.8658 189.985L-12.1785 191.672L-10.4911 189.985L-12.1785 188.297L-13.8658 189.985ZM-14.0859 164.081L-12.1785 165.989L-10.1977 164.081L-12.1051 162.173L-14.0859 164.081ZM-13.9391 151.166L-12.0317 153.074L-10.1243 151.166L-12.0317 149.258L-13.9391 151.166ZM-13.499 215.962L-12.1051 217.356L-10.7112 215.962L-12.1051 214.567L-13.499 215.962ZM-13.6457 202.973L-12.1051 204.514L-10.5645 202.973L-12.1051 201.432L-13.6457 202.973ZM-13.3522 229.023L-12.1051 230.271L-10.8579 229.023L-12.1051 227.776L-13.3522 229.023ZM-1.39422 164.008L0.733284 166.136L2.86079 164.008L0.733284 161.879L-1.39422 164.008ZM-6.74965 235.701L-5.50249 236.949L-4.25534 235.701L-5.50249 234.454L-6.74965 235.701ZM-7.11646 209.504L-5.57586 211.045L-4.03526 209.504L-5.57586 207.963L-7.11646 209.504ZM-13.9391 125.189L-11.885 127.243L-9.83086 125.189L-11.885 123.134L-13.9391 125.189ZM-7.0431 222.566L-5.64922 223.96L-4.25534 222.566L-5.64922 221.172L-7.0431 222.566ZM-6.45621 248.763L-5.35577 249.864L-4.25534 248.763L-5.35577 247.662L-6.45621 248.763ZM12.6913 242.159L14.0852 243.553L15.4791 242.159L14.0852 240.765L12.6913 242.159ZM16.1393 150.946L13.7184 148.524L11.2974 150.946L13.7184 153.367L16.1393 150.946ZM12.5446 229.244L14.0852 230.785L15.6258 229.244L14.0852 227.703L12.5446 229.244ZM11.7376 190.058L13.7918 192.113L15.8459 190.058L13.7918 188.003L11.7376 190.058ZM11.3708 138.104L13.7918 140.525L16.2127 138.104L13.7918 135.682L11.3708 138.104ZM11.4442 125.189L13.9385 127.684L16.4328 125.189L13.9385 122.694L11.4442 125.189ZM11.3708 164.008L13.7184 166.356L16.066 164.008L13.7184 161.659L11.3708 164.008ZM12.2511 216.182L14.0118 217.943L15.7725 216.182L14.0118 214.421L12.2511 216.182ZM11.5175 177.069L13.7184 179.271L15.9193 177.069L13.7184 174.868L11.5175 177.069ZM15.6992 203.12L13.7918 201.212L11.8843 203.12L13.7918 205.028L15.6992 203.12ZM5.20838 118.658L7.40924 120.859L9.61011 118.658L7.40924 116.456L5.20838 118.658ZM5.06165 170.538L7.26252 172.74L9.46339 170.538L7.26252 168.337L5.06165 170.538ZM5.20838 131.72L7.40924 133.921L9.61011 131.72L7.40924 129.518L5.20838 131.72ZM-13.0588 242.159L-11.9584 243.26L-10.8579 242.159L-11.9584 241.058L-13.0588 242.159ZM-1.24749 125.189L1.02674 127.464L3.30096 125.189L1.02674 122.914L-1.24749 125.189ZM-1.17413 138.177L0.953377 140.305L3.08087 138.177L0.953377 136.049L-1.17413 138.177ZM-51.8674 228.877L-51.1338 229.611L-50.4001 228.877L-51.1338 228.143L-51.8674 228.877ZM9.46339 157.477L7.18916 155.202L4.91492 157.477L7.18916 159.751L9.46339 157.477ZM5.28174 183.527L7.33588 185.582L9.39002 183.527L7.33588 181.472L5.28174 183.527ZM6.23545 235.701L7.62933 237.095L9.02322 235.701L7.62933 234.307L6.23545 235.701ZM4.9883 144.635L7.33588 146.91L9.68347 144.635L7.33588 142.36L4.9883 144.635ZM-1.32085 151.092L0.880013 153.294L3.08087 151.092L0.880013 148.891L-1.32085 151.092ZM5.42847 196.589L7.26252 198.423L9.09657 196.589L7.18916 194.754L5.42847 196.589ZM5.942 222.639L7.55597 224.254L9.16994 222.713L7.55597 221.098L5.942 222.639ZM5.64855 209.577L7.40924 211.339L9.16994 209.577L7.40924 207.816L5.64855 209.577ZM6.30881 248.763L7.55597 250.011L8.80312 248.763L7.55597 247.516L6.30881 248.763ZM-39.2491 215.962L-38.1487 217.062L-37.0482 215.962L-38.1487 214.861L-39.2491 215.962ZM-39.2491 203.046L-38.0019 204.294L-36.7548 203.046L-38.0019 201.799L-39.2491 203.046ZM-39.029 228.95L-38.0753 229.904L-37.1949 228.95L-38.0753 228.07L-39.029 228.95ZM-39.4692 177.143L-38.0019 178.61L-36.5347 177.143L-38.0019 175.675L-39.4692 177.143ZM-39.4692 189.985L-38.1487 191.305L-36.8281 189.985L-38.1487 188.664L-39.4692 189.985ZM-45.5582 118.511L-44.3111 119.759L-43.0639 118.511L-44.3111 117.264L-45.5582 118.511ZM-38.8089 241.939L-38.0753 242.672L-37.3417 241.939L-38.0753 241.205L-38.8089 241.939ZM-39.4692 164.154L-38.0019 165.622L-36.5347 164.154L-38.0019 162.687L-39.4692 164.154ZM-32.7932 209.504L-31.5461 210.752L-30.2989 209.504L-31.5461 208.257L-32.7932 209.504ZM-45.6316 131.866L-44.3844 133.114L-43.1373 131.866L-44.3844 130.619L-45.6316 131.866ZM-32.7199 222.493L-31.6194 223.593L-30.519 222.493L-31.6194 221.392L-32.7199 222.493ZM-39.3958 125.189L-37.7818 126.803L-36.1679 125.189L-37.7818 123.574L-39.3958 125.189ZM-39.3958 151.313L-37.9286 152.78L-36.4613 151.313L-37.9286 149.845L-39.3958 151.313ZM-39.3958 138.324L-37.9286 139.792L-36.4613 138.324L-37.9286 136.856L-39.3958 138.324ZM-32.2797 248.47L-31.5461 249.203L-30.8124 248.47L-31.5461 247.736L-32.2797 248.47ZM-52.0875 151.239L-50.8403 152.487L-49.5931 151.239L-50.8403 149.992L-52.0875 151.239ZM-52.2342 177.143L-50.987 178.39L-49.7399 177.143L-50.987 175.895L-52.2342 177.143ZM-52.1608 164.228L-50.9137 165.475L-49.6665 164.228L-50.9137 162.98L-52.1608 164.228ZM-49.5931 138.397L-50.8403 137.15L-52.0875 138.397L-50.8403 139.645L-49.5931 138.397ZM-52.2342 190.058L-51.0604 191.232L-49.8866 190.058L-51.0604 188.884L-52.2342 190.058ZM-52.0875 215.888L-51.2071 216.842L-50.3268 215.888L-51.2071 215.008L-52.0875 215.888ZM-45.6316 157.77L-44.3844 159.018L-43.1373 157.77L-44.3844 156.523L-45.6316 157.77ZM-52.1608 125.189L-50.8403 126.51L-49.4464 125.189L-50.7669 123.795L-52.1608 125.189ZM-52.0141 203.12L-50.9137 204.221L-49.8132 203.12L-50.9137 202.019L-52.0141 203.12ZM-45.6316 196.516L-44.4578 197.69L-43.284 196.516L-44.4578 195.341L-45.6316 196.516ZM-45.1914 248.47L-44.6045 249.057L-43.9443 248.47L-44.5312 247.883L-45.1914 248.47ZM-45.705 170.685L-44.4578 171.933L-43.2106 170.685L-44.4578 169.438L-45.705 170.685ZM-45.7783 183.6L-44.4578 184.921L-43.1373 183.6L-44.4578 182.28L-45.7783 183.6ZM-45.5582 209.577L-44.4578 210.678L-43.3574 209.577L-44.4578 208.477L-45.5582 209.577ZM-45.3381 235.481L-44.6045 236.215L-43.8709 235.481L-44.6045 234.747L-45.3381 235.481ZM-45.5582 222.419L-44.6779 223.373L-43.7975 222.419L-44.6779 221.539L-45.5582 222.419ZM-32.4998 235.481L-31.6194 236.362L-30.6657 235.481L-31.6194 234.527L-32.4998 235.481ZM-19.9548 209.504L-18.561 210.898L-17.1671 209.504L-18.561 208.036L-19.9548 209.504ZM-19.8815 222.566L-18.6343 223.813L-17.3872 222.566L-18.6343 221.318L-19.8815 222.566ZM-20.1749 196.442L-18.6343 197.983L-17.0937 196.442L-18.6343 194.901L-20.1749 196.442ZM-17.4605 235.554L-18.561 234.454L-19.6614 235.554L-18.561 236.655L-17.4605 235.554ZM-20.395 183.454L-18.7077 185.141L-17.0203 183.454L-18.7077 181.692L-20.395 183.454ZM-19.3679 248.69L-18.4142 249.644L-17.4605 248.69L-18.4142 247.736L-19.3679 248.69ZM-26.7042 125.189L-24.8701 127.023L-23.0361 125.189L-24.8701 123.354L-26.7042 125.189ZM-20.3216 170.612L-18.6343 172.3L-16.947 170.612L-18.6343 168.924L-20.3216 170.612ZM-20.1749 118.584L-18.4876 120.272L-16.8003 118.584L-18.4876 116.897L-20.1749 118.584ZM-20.2483 157.697L-18.561 159.385L-16.8736 157.697L-18.561 156.009L-20.2483 157.697ZM-24.0631 21.354L-25.1636 20.2533L-26.264 21.354L-25.1636 22.4547L-24.0631 21.354ZM-20.2483 144.708L-18.561 146.396L-16.8736 144.708L-18.561 143.02L-20.2483 144.708ZM-20.1749 131.793L-18.4876 133.481L-16.8003 131.793L-18.4876 130.105L-20.1749 131.793ZM-32.8666 131.793L-31.3993 133.261L-29.9321 131.793L-31.3993 130.325L-32.8666 131.793ZM-32.8666 118.511L-31.3993 119.979L-29.9321 118.511L-31.3993 117.043L-32.8666 118.511ZM-25.9705 242.012L-25.0168 242.966L-24.1365 242.012L-25.0902 241.058L-25.9705 242.012ZM-32.9399 144.782L-31.4727 146.249L-30.0055 144.782L-31.4727 143.314L-32.9399 144.782ZM-33.16 183.527L-31.6194 185.068L-30.0788 183.527L-31.6194 181.986L-33.16 183.527ZM-32.9399 170.612L-31.4727 172.079L-30.0055 170.612L-31.4727 169.144L-32.9399 170.612ZM-26.7042 151.239L-25.0168 152.927L-23.3295 151.239L-25.0168 149.551L-26.7042 151.239ZM-26.7775 177.069L-25.0902 178.757L-23.4029 177.069L-25.0902 175.382L-26.7775 177.069ZM-26.7775 164.228L-25.0902 165.915L-23.4029 164.228L-25.0902 162.54L-26.7775 164.228ZM-26.6308 138.324L-24.9435 140.012L-23.2561 138.324L-24.9435 136.636L-26.6308 138.324ZM-26.7042 189.911L-25.1636 191.452L-23.6229 189.911L-25.1636 188.37L-26.7042 189.911ZM-26.1906 229.023L-25.0902 230.124L-23.9898 229.023L-25.0902 227.923L-26.1906 229.023ZM-26.4107 216.035L-25.1636 217.282L-23.9164 216.035L-25.1636 214.788L-26.4107 216.035ZM-26.4107 203.046L-25.0168 204.441L-23.6229 203.046L-25.0168 201.652L-26.4107 203.046ZM68.3732 33.9756L66.099 31.7008L63.8247 33.9756L66.099 36.2504L68.3732 33.9756ZM68.0797 21.1339L66.0256 19.0792L63.9715 21.1339L66.0256 23.1885L68.0797 21.1339ZM68.5933 47.0375L66.0256 44.4692L63.4579 47.0375L66.0256 49.6059L68.5933 47.0375ZM67.5662 8.21872L65.8789 6.53095L64.1915 8.21872L65.8789 9.9065L67.5662 8.21872ZM68.74 60.0994L66.0256 57.3843L63.3112 60.0994L66.0256 62.8145L68.74 60.0994ZM81.7985 60.026L79.0107 57.2375L76.2229 60.026L79.0107 62.8145L81.7985 60.026ZM69.0335 86.1498L66.0256 83.0678L63.0177 86.1498L66.0256 89.2318L69.0335 86.1498ZM68.8867 73.0879L66.0256 70.226L63.1645 73.0879L66.0256 75.9498L68.8867 73.0879ZM69.1068 112.347L65.8055 109.045L62.5042 112.347L65.8055 115.649L69.1068 112.347ZM69.0335 99.2851L65.8055 96.0563L62.5776 99.2851L65.8055 102.514L69.0335 99.2851ZM74.0221 1.76115L72.3347 0.0733814L70.6474 1.76115L72.3347 3.44893L74.0221 1.76115ZM81.9452 73.0879L79.0107 70.1527L76.0762 73.0879L79.0107 76.0232L81.9452 73.0879ZM82.1653 86.0764L79.0107 82.921L75.8561 86.0764L79.0107 89.2318L82.1653 86.0764ZM75.4893 79.6189L72.4815 76.6102L69.4736 79.6189L72.4815 82.6275L75.4893 79.6189ZM74.3155 14.7497L72.4081 12.8418L70.5007 14.7497L72.4081 16.6576L74.3155 14.7497ZM75.636 92.6074L72.4081 89.3786L69.1802 92.6074L72.4081 95.8362L75.636 92.6074ZM75.2692 66.557L72.4815 63.7685L69.7671 66.557L72.5548 69.3455L75.2692 66.557ZM74.609 27.5914L72.4081 25.39L70.2072 27.5914L72.4081 29.7929L74.609 27.5914ZM75.1225 53.4951L72.5548 50.9267L69.9872 53.4951L72.5548 56.0634L75.1225 53.4951ZM74.9758 40.4332L72.5548 38.0116L70.1339 40.4332L72.5548 42.8548L74.9758 40.4332ZM55.7549 99.2851L52.7471 96.2765L49.7392 99.2851L52.7471 102.294L55.7549 99.2851ZM55.6815 86.2232L52.8204 83.3613L49.9593 86.2232L52.8204 89.0851L55.6815 86.2232ZM55.8283 112.347L52.8204 109.338L49.8126 112.347L52.8204 115.356L55.8283 112.347ZM55.6815 73.1613L52.9671 70.4462L50.2527 73.1613L52.9671 75.8764L55.6815 73.1613ZM55.2414 34.049L53.0405 31.8475L50.8396 34.049L53.0405 36.2504L55.2414 34.049ZM55.5348 60.0994L52.9671 57.5311L50.3995 60.0994L52.9671 62.6678L55.5348 60.0994ZM55.3881 47.0375L53.0405 44.6893L50.6929 47.0375L53.0405 49.3857L55.3881 47.0375ZM48.7121 40.5799L46.5113 38.3785L44.3104 40.5799L46.5113 42.7814L48.7121 40.5799ZM48.4187 14.4561L46.5846 12.6216L44.7506 14.4561L46.5846 16.2907L48.4187 14.4561ZM48.8589 53.5685L46.5113 51.2203L44.1637 53.5685L46.5113 55.9167L48.8589 53.5685ZM48.5654 27.518L46.5113 25.4634L44.4571 27.518L46.5113 29.5727L48.5654 27.518ZM48.1986 1.68777L46.5113 0L44.8239 1.68777L46.5113 3.37555L48.1986 1.68777ZM62.3575 79.6189L59.4964 76.757L56.6353 79.6189L59.4964 82.4808L62.3575 79.6189ZM62.4309 105.816L59.2763 102.661L56.1217 105.816L59.2763 108.971L62.4309 105.816ZM62.3575 92.7542L59.3496 89.7455L56.3418 92.7542L59.3496 95.7628L62.3575 92.7542ZM62.0641 53.5685L59.4964 51.0001L56.9287 53.5685L59.4964 56.1368L62.0641 53.5685ZM62.2108 66.557L59.4964 63.8419L56.782 66.557L59.4964 69.2721L62.2108 66.557ZM61.4038 14.6029L59.4964 12.695L57.589 14.6029L59.4964 16.5842L61.4038 14.6029ZM61.9173 40.5066L59.5697 38.1584L57.2222 40.5066L59.5697 42.8548L61.9173 40.5066ZM61.6972 27.518L59.5697 25.39L57.4422 27.518L59.5697 29.6461L61.6972 27.518ZM55.0947 20.9871L53.1139 19.0058L51.1331 20.9871L53.1139 22.9684L55.0947 20.9871ZM54.6545 8.14534L52.9671 6.45757L51.2798 8.14534L52.9671 9.83311L54.6545 8.14534ZM62.5776 118.805L59.2763 115.502L55.975 118.805L59.2763 122.107L62.5776 118.805ZM61.1103 1.68777L59.423 0L57.7357 1.68777L59.423 3.37555L61.1103 1.68777ZM95.5906 151.313L92.0692 147.79L88.5478 151.313L92.0692 154.835L95.5906 151.313ZM89.0613 144.708L85.5399 141.186L82.0186 144.708L85.5399 148.231L89.0613 144.708ZM75.8561 131.5L72.3347 127.977L68.8134 131.5L72.3347 135.022L75.8561 131.5ZM72.3347 147.937L75.7094 144.561L72.3347 141.186L68.9601 144.561L72.3347 147.937ZM82.312 151.239L78.9373 147.864L75.5627 151.239L78.9373 154.615L82.312 151.239ZM96.0307 40.7267L98.3783 43.0749H98.4517L98.525 43.1483L100.873 40.8001L98.525 38.4519L98.4517 38.5253L98.3783 38.4519L96.0307 40.7267ZM96.1775 27.7382L98.3049 29.8662H98.3783L98.4517 29.9396L100.579 27.8116L98.4517 25.6835L98.3783 25.7569L98.3049 25.6835L96.1775 27.7382ZM95.7373 53.6418L98.3049 56.2102L98.3783 56.1368L98.4517 56.2102L101.019 53.6418L98.4517 51.0735H98.3783L98.3049 51.0001L95.7373 53.6418ZM62.3575 125.189L65.8055 128.638L69.2535 125.189L65.8055 121.74L62.3575 125.189ZM95.5172 66.4836L98.3783 69.3455L98.4517 69.2721L98.525 69.3455L101.386 66.4836L98.525 63.6951H98.3783L98.3049 63.6217L95.5172 66.4836ZM49.0056 66.6304L46.4379 64.062L43.8702 66.6304L46.4379 69.1987L49.0056 66.6304ZM96.3975 14.8231L98.3049 16.731H98.3783L98.4517 16.8044L100.359 14.8964L98.4517 12.9885L98.3783 13.0619V12.9151L96.3975 14.8231ZM96.6176 1.83454L98.3049 3.52231L98.3783 3.44893L98.4517 3.52231L100.139 1.83454L98.4517 0.146763L98.3783 0.220144L98.3049 0.146763L96.6176 1.83454ZM75.3426 112.274L78.864 115.796L82.3854 112.274L78.864 108.751L75.3426 112.274ZM81.6517 118.805L85.3199 122.474L88.988 118.805L85.3199 115.135L81.6517 118.805ZM88.2543 112.2L91.9224 115.869L95.5906 112.2L91.9224 108.531L88.2543 112.2ZM98.3049 82.7009L98.3783 82.6275L98.4517 82.7009L101.533 79.6189L98.4517 76.5368H98.3783L98.3049 76.4635L95.2237 79.5455L98.3049 82.7009ZM78.7906 128.931L82.4587 125.262L78.7906 121.593L75.1225 125.262L78.7906 128.931ZM98.3783 135.536H98.4517L102.267 131.646L98.4517 127.757L98.3783 127.83L98.3049 127.757L94.4168 131.646L98.3783 135.536ZM98.3783 161.146L98.4517 161.219L101.826 157.844L98.4517 154.468H98.3783L98.3049 154.395L94.9303 157.77L98.3783 161.146ZM78.864 141.626L82.3854 138.104L78.864 134.582L75.3426 138.104L78.864 141.626ZM88.2543 125.189L91.9224 128.858L95.5906 125.189L91.9224 121.52L88.2543 125.189ZM95.6639 138.251L91.9958 134.582L88.3277 138.251L91.9958 141.92L95.6639 138.251ZM75.636 99.1383L79.0107 102.514L82.3854 99.1383L79.0107 95.7628L75.636 99.1383ZM81.9452 105.669L85.4666 109.192L88.988 105.669L85.4666 102.147L81.9452 105.669ZM69.0335 105.743L72.4081 109.118L75.7828 105.743L72.4081 102.441L69.0335 105.743ZM72.3347 122.327L75.8561 118.805L72.3347 115.282L68.8134 118.805L72.3347 122.327ZM88.5478 99.065L92.0692 102.587L95.5906 99.065L92.0692 95.5426L88.5478 99.065ZM89.0613 131.573L85.3932 127.904L81.7251 131.573L85.3932 135.242L89.0613 131.573ZM98.3783 148.451L98.4517 148.524L102.12 144.855L98.4517 141.186L98.3783 141.259L98.3049 141.186L94.6368 144.855L98.3783 148.451ZM88.6212 79.5455L85.6133 76.4635L82.6055 79.5455L85.6133 82.6275L88.6212 79.5455ZM88.4011 66.557L85.6133 63.7685L82.8255 66.557L85.6133 69.3455L88.4011 66.557ZM88.1076 53.4951L85.5399 50.9267L82.9723 53.4951L85.5399 56.0634L88.1076 53.4951ZM-24.1365 8.36549L-25.0902 7.41153L-25.9705 8.36549L-25.0168 9.31944L-24.1365 8.36549ZM81.6517 46.9641L79.0841 44.4692L76.5164 47.0375L79.0841 49.6059L81.6517 46.9641ZM86.9338 1.83454L85.2465 0.146763L83.5592 1.83454L85.2465 3.52231L86.9338 1.83454ZM87.8875 40.6533L85.4666 38.2317L83.0456 40.6533L85.4666 43.0749L87.8875 40.6533ZM87.5207 27.7382L85.3932 25.6101L83.2657 27.7382L85.3932 29.8662L87.5207 27.7382ZM80.9181 21.2072L78.864 19.2259L76.8832 21.2072L78.864 23.1885L80.9181 21.2072ZM80.5513 8.2921L78.864 6.60433L77.1767 8.2921L78.864 9.97988L80.5513 8.2921ZM81.2849 34.1224L79.0107 31.8475L76.7365 34.1958L79.0107 36.4706L81.2849 34.1224ZM87.1539 14.7497L85.3199 12.9151L83.4858 14.7497L85.3199 16.5842L87.1539 14.7497ZM93.8298 21.2072L91.8491 19.2259L89.8683 21.2072L91.8491 23.1885L93.8298 21.2072ZM93.463 8.2921L91.7757 6.60433L90.0884 8.2921L91.7757 9.97988L93.463 8.2921ZM94.1233 34.1958L91.9224 31.9943L89.7216 34.1958L91.9224 36.3972L94.1233 34.1958ZM22.7419 144.488L20.1743 141.92L17.6066 144.488L20.1743 147.056L22.7419 144.488ZM94.4901 47.1109L91.9224 44.5425L89.3548 47.1109L91.9224 49.6792L94.4901 47.1109ZM94.8569 59.9526L92.0692 57.1642L89.2814 59.9526L92.0692 62.8145L94.8569 59.9526ZM95.077 73.0145L92.0692 69.9325L89.0613 73.0145L92.0692 76.0966L95.077 73.0145ZM95.2971 86.0764L91.9958 82.7743L88.6945 86.0764L91.9958 89.3786L95.2971 86.0764ZM88.7679 92.6074L85.4666 89.3052L82.1653 92.6074L85.4666 95.9096L88.7679 92.6074ZM2.49398 21.2072L1.1001 19.813L-0.293785 21.2072L1.1001 22.6015L2.49398 21.2072ZM2.49398 34.3425L0.953377 32.7281L-0.660591 34.3425L0.953377 35.9569L2.49398 34.3425ZM2.6407 60.3195L0.806648 58.485L-1.0274 60.3195L0.806648 62.1541L2.6407 60.3195ZM2.2739 8.14534L1.02674 6.89786L-0.220421 8.14534L1.02674 9.39283L2.2739 8.14534ZM2.56734 47.4044L0.880013 45.7166L-0.80732 47.4044L0.880013 49.0922L2.56734 47.4044ZM2.78743 73.3814L0.733284 71.3268L-1.32085 73.3814L0.733284 75.4361L2.78743 73.3814ZM-4.3287 1.61439L-5.42914 0.51367L-6.52956 1.61439L-5.42914 2.71511L-4.3287 1.61439ZM2.86079 86.4433L0.733284 84.3153L-1.39422 86.4433L0.733284 88.5714L2.86079 86.4433ZM-7.70336 92.7542L-5.64922 94.8088L-3.59508 92.7542L-5.64922 90.6995L-7.70336 92.7542ZM-7.55664 105.669L-5.50249 107.651L-3.44836 105.669L-5.50249 103.615L-7.55664 105.669ZM5.06165 105.743L7.40924 108.017L9.75684 105.743L7.40924 103.468L5.06165 105.743ZM8.80312 1.61439L7.55597 0.366907L6.30881 1.61439L7.55597 2.86188L8.80312 1.61439ZM9.16994 27.7382L7.55597 26.1238L5.942 27.7382L7.55597 29.3526L9.16994 27.7382ZM8.94984 14.6763L7.55597 13.282L6.16209 14.6763L7.55597 16.0705L8.94984 14.6763ZM16.1393 99.4319L13.7184 97.0103L11.2974 99.4319L13.7184 101.853L16.1393 99.4319ZM-1.32085 99.2851L0.880013 101.487L3.08087 99.2851L0.880013 97.0837L-1.32085 99.2851ZM9.46339 92.9009L7.18916 90.6261L4.91492 92.9009L7.18916 95.1757L9.46339 92.9009ZM-1.17413 112.2L0.953377 114.328L3.08087 112.2L0.953377 110.072L-1.17413 112.2ZM-4.18198 14.6763L-5.42914 13.4288L-6.67629 14.6763L-5.42914 15.9238L-4.18198 14.6763ZM9.31666 66.8505L7.26252 64.7958L5.20838 66.8505L7.26252 68.9052L9.31666 66.8505ZM9.16994 53.7886L7.26252 51.9541L5.42847 53.7886L7.26252 55.6231L9.16994 53.7886ZM9.16994 40.8001L7.40924 39.0389L5.64855 40.7267L7.40924 42.4879L9.16994 40.8001ZM9.46339 79.839L7.26252 77.6376L5.06165 79.839L7.26252 82.0405L9.46339 79.839ZM-20.2483 92.6808L-18.561 94.3685L-16.8736 92.6808L-18.561 90.993L-20.2483 92.6808ZM-17.4605 1.76115L-18.4142 0.807196L-19.3679 1.76115L-18.4142 2.64173L-17.4605 1.76115ZM-17.4605 14.8231L-18.561 13.7223L-19.6614 14.8231L-18.561 15.9238L-17.4605 14.8231ZM-17.1671 40.8735L-18.561 39.4792L-19.9548 40.8735L-18.561 42.2677L-17.1671 40.8735ZM-17.3872 27.885L-18.6343 26.6375L-19.8815 27.885L-18.6343 29.1324L-17.3872 27.885ZM-20.1749 105.669L-18.4876 107.357L-16.8003 105.669L-18.4876 103.982L-20.1749 105.669ZM-20.3216 79.7656L-18.6343 81.4534L-16.947 79.7656L-18.6343 78.0779L-20.3216 79.7656ZM11.4442 112.274L13.8651 114.695L16.2861 112.274L13.8651 109.852L11.4442 112.274ZM-26.7042 86.1498L-25.0168 87.8376L-23.3295 86.1498L-25.0168 84.462L-26.7042 86.1498ZM-4.10861 27.8116L-5.50249 26.4173L-6.89638 27.8116L-5.50249 29.2058L-4.10861 27.8116ZM-17.0937 53.9354L-18.6343 52.3944L-20.1749 53.9354L-18.6343 55.4764L-17.0937 53.9354ZM-17.0203 66.9973L-18.7077 65.3095L-20.395 66.9973L-18.7077 68.685L-17.0203 66.9973ZM-26.7042 99.1383L-25.0168 100.826L-23.3295 99.1383L-25.0168 97.4506L-26.7042 99.1383ZM-26.6308 112.053L-24.9435 113.741L-23.2561 112.053L-24.9435 110.366L-26.6308 112.053ZM-12.0317 113.961L-10.1977 112.127L-12.0317 110.292L-13.8658 112.127L-12.0317 113.961ZM-14.0859 86.2966L-12.1785 88.2045L-10.1977 86.2966L-12.1051 84.3887L-14.0859 86.2966ZM-3.81516 79.9124L-5.79594 77.9311L-7.77672 79.9124L-5.79594 81.8937L-3.81516 79.9124ZM-12.0317 97.3038L-13.9391 99.2117L-12.0317 101.12L-10.1243 99.2117L-12.0317 97.3038ZM-10.4178 73.3814L-12.2518 71.5469L-14.0859 73.3814L-12.2518 75.216L-10.4178 73.3814ZM-3.96189 53.862L-5.64922 52.1742L-7.33655 53.862L-5.64922 55.5498L-3.96189 53.862ZM-3.88853 66.8505L-5.72259 65.016L-7.55664 66.8505L-5.72259 68.685L-3.88853 66.8505ZM-4.10861 40.8735L-5.64922 39.3325L-7.18983 40.8735L-5.64922 42.4145L-4.10861 40.8735ZM-10.5645 47.4044L-12.1051 45.8634L-13.6457 47.4044L-12.1051 48.9454L-10.5645 47.4044ZM-10.4911 60.4663L-12.1785 58.7785L-13.8658 60.3929L-12.1785 62.0807L-10.4911 60.4663ZM-10.7112 34.4159L-12.1051 33.0217L-13.499 34.4159L-12.1051 35.8101L-10.7112 34.4159ZM-10.8579 21.354L-12.1051 20.1065L-13.3522 21.354L-12.1051 22.6015L-10.8579 21.354ZM-10.8579 8.21872L-11.9584 7.118L-13.0588 8.21872L-11.9584 9.31944L-10.8579 8.21872ZM22.6686 79.839L20.321 77.4908L17.9734 79.839L20.321 82.1872L22.6686 79.839ZM35.2869 14.6029L33.5995 12.9151L31.9122 14.6029L33.5995 16.2907L35.2869 14.6029ZM35.2135 1.54101L33.6729 0L32.1323 1.54101L33.6729 3.08202L35.2135 1.54101ZM35.5069 40.5799L33.4528 38.5253L31.3987 40.5799L33.4528 42.6346L35.5069 40.5799ZM35.3602 27.5914L33.5262 25.7569L31.6188 27.5914L33.4528 29.426L35.3602 27.5914ZM35.8738 79.839L33.3061 77.2707L30.7384 79.839L33.3061 82.4074L35.8738 79.839ZM35.727 66.7771L33.3061 64.3555L30.8851 66.7771L33.3061 69.1987L35.727 66.7771ZM35.727 53.6418L33.5262 51.4404L31.3253 53.6418L33.5262 55.8433L35.727 53.6418ZM28.6843 8.14534L27.1437 6.60433L25.6031 8.14534L27.1437 9.68635L28.6843 8.14534ZM16.1393 86.37L13.7918 84.0218L11.4442 86.37L13.7918 88.7915L16.1393 86.37ZM41.8895 8.07196L40.2021 6.38419L38.5148 8.07196L40.2021 9.75973L41.8895 8.07196ZM49.2257 105.816L46.2912 102.881L43.3567 105.816L46.2912 108.751L49.2257 105.816ZM49.1523 92.8275L46.2912 89.9657L43.4301 92.8275L46.2912 95.6894L49.1523 92.8275ZM42.4763 86.2966L39.7619 83.5815L37.0476 86.2966L39.7619 89.0117L42.4763 86.2966ZM42.403 73.2347L39.8353 70.6663L37.2676 73.2347L39.8353 75.803L42.403 73.2347ZM42.5497 99.2851L39.7619 96.57L36.9742 99.3585L39.7619 102.147L42.5497 99.2851ZM42.0362 34.049L39.982 31.9943L37.9279 34.049L39.982 36.1037L42.0362 34.049ZM42.3296 60.0994L39.9087 57.6778L37.4877 60.0994L39.9087 62.521L42.3296 60.0994ZM41.8895 21.0605L40.0554 19.2259L38.2214 21.0605L40.0554 22.895L41.8895 21.0605ZM42.1829 47.1109L39.982 44.9094L37.7812 47.1109L39.982 49.3123L42.1829 47.1109ZM42.4763 112.347L39.6886 109.559L36.9008 112.347L39.6886 115.135L42.4763 112.347ZM22.6686 105.889L20.1009 103.321L17.6066 105.889L20.1743 108.458L22.6686 105.889ZM22.3751 53.7886L20.321 51.7339L18.2668 53.7886L20.321 55.8433L22.3751 53.7886ZM22.7419 92.9009L20.1743 90.3326L17.6799 92.8275L20.2476 95.3959L22.7419 92.9009ZM22.4485 66.8505L20.2476 64.6491L18.0468 66.8505L20.2476 69.0519L22.4485 66.8505ZM49.0056 79.7656L46.2912 77.0505L43.5768 79.7656L46.2912 82.4808L49.0056 79.7656ZM15.8459 60.3195L13.7918 58.2649L11.7376 60.3195L13.7918 62.3742L15.8459 60.3195ZM15.9926 73.3081L13.7918 71.1066L11.5909 73.3081L13.7918 75.5095L15.9926 73.3081ZM15.7725 47.2577L13.8651 45.3497L11.9577 47.2577L13.8651 49.1656L15.7725 47.2577ZM15.4791 8.21872L14.0852 6.82447L12.6913 8.21872L14.0852 9.61297L15.4791 8.21872ZM15.7725 34.1958L14.0118 32.4346L12.3245 34.1958L14.0118 35.9569L15.7725 34.1958ZM15.6258 21.1339L14.0852 19.5928L12.5446 21.1339L14.0852 22.6749L15.6258 21.1339ZM22.3751 40.6533L20.4677 38.7454L18.5603 40.6533L20.4677 42.5612L22.3751 40.6533ZM29.3445 86.2966L26.7769 83.7282L24.2092 86.2966L26.7769 88.8649L29.3445 86.2966ZM29.2712 99.3585L26.7035 96.7901L24.1358 99.3585L26.7035 101.927L29.2712 99.3585ZM29.2712 112.347L26.7035 109.779L24.1358 112.347L26.7035 114.915L29.2712 112.347ZM29.1978 73.3081L26.8502 70.8865L24.5026 73.2347L26.8502 75.5829L29.1978 73.3081ZM28.9044 34.049L27.0703 32.2145L25.2362 34.049L27.0703 35.8835L28.9044 34.049ZM28.7576 21.1339L27.0703 19.4461L25.383 21.1339L27.0703 22.8216L28.7576 21.1339ZM29.0511 60.2462L26.7769 58.0447L24.576 60.2462L26.7769 62.4476L29.0511 60.2462ZM29.0511 47.1109L26.9969 45.0562L24.9428 47.1109L26.9969 49.1656L29.0511 47.1109ZM22.155 14.6029L20.6144 13.0619L19.0738 14.6029L20.6144 16.1439L22.155 14.6029ZM22.3018 27.5914L20.6144 25.9037L18.9271 27.5914L20.6144 29.2792L22.3018 27.5914ZM21.9349 1.68777L20.5411 0.293526L19.1472 1.68777L20.5411 3.08202L21.9349 1.68777ZM63.8981 229.244L65.9522 231.298L68.0064 229.244L65.9522 227.189L63.8981 229.244ZM63.2378 190.278L65.9522 192.993L68.6666 190.278L65.9522 187.563L63.2378 190.278ZM50.8396 216.329L53.0405 218.53L55.2414 216.329L53.0405 214.127L50.8396 216.329ZM70.2072 209.871L72.6282 212.293L75.0491 209.871L72.6282 207.449L70.2072 209.871ZM63.0911 177.29L65.9522 180.151L68.8134 177.29L65.9522 174.428L63.0911 177.29ZM63.8247 216.402L66.099 218.677L68.3732 216.402L66.099 214.127L63.8247 216.402ZM70.6474 248.616L72.3347 250.304L74.0221 248.616L72.3347 246.929L70.6474 248.616ZM70.2806 222.786L72.4815 224.988L74.6823 222.786L72.4815 220.585L70.2806 222.786ZM70.5007 235.701L72.4081 237.609L74.3155 235.701L72.4081 233.793L70.5007 235.701ZM62.871 164.301L65.8789 167.31L68.8867 164.301L65.8789 161.292L62.871 164.301ZM62.6509 151.166L65.8789 154.395L69.1068 151.166L65.8789 147.937L62.6509 151.166ZM64.1915 242.159L65.8789 243.847L67.5662 242.159L65.8789 240.471L64.1915 242.159ZM49.7392 138.031L52.7471 141.039L55.7549 138.031L52.7471 135.022L49.7392 138.031ZM62.5776 131.573L59.2763 128.271L55.975 131.573L59.2763 134.875L62.5776 131.573ZM49.8126 151.092L52.8204 154.101L55.8283 151.092L52.8204 148.084L49.8126 151.092ZM50.6196 203.34L52.9671 205.688L55.3147 203.34L52.9671 200.992L50.6196 203.34ZM49.9593 164.154L52.8204 167.016L55.6815 164.154L52.8204 161.292L49.9593 164.154ZM50.4728 190.278L53.0405 192.846L55.6082 190.278L53.0405 187.71L50.4728 190.278ZM50.2527 177.29L52.9671 180.005L55.6815 177.29L52.9671 174.574L50.2527 177.29ZM56.9287 196.809L59.4964 199.377L62.0641 196.809L59.4964 194.241L56.9287 196.809ZM69.1068 138.104L65.8055 134.802L62.5042 138.104L65.8055 141.406L69.1068 138.104ZM56.782 183.821L59.4964 186.536L62.2108 183.821L59.4964 181.105L56.782 183.821ZM56.1217 144.561L59.2763 147.717L62.4309 144.561L59.2763 141.406L56.1217 144.561ZM56.2684 157.623L59.2763 160.632L62.2841 157.623L59.2029 154.615L56.2684 157.623ZM56.5619 170.759L59.423 173.621L62.2841 170.759L59.423 167.897L56.5619 170.759ZM57.5156 235.775L59.423 237.683L61.3304 235.775L59.4964 233.793L57.5156 235.775ZM57.1488 209.871L59.4964 212.219L61.844 209.871L59.4964 207.523L57.1488 209.871ZM57.6623 248.69L59.3496 250.378L61.037 248.69L59.3496 247.002L57.6623 248.69ZM57.5156 222.859L59.6431 224.988L61.7706 222.859L59.6431 220.731L57.5156 222.859ZM63.4579 203.34L66.0256 205.908L68.5933 203.34L66.0256 200.772L63.4579 203.34ZM82.4587 170.832L85.4666 173.841L88.4744 170.832L85.4666 167.75L82.4587 170.832ZM82.7522 183.821L85.5399 186.609L88.3277 183.821L85.5399 181.032L82.7522 183.821ZM83.0456 196.882L85.6133 199.451L88.181 196.882L85.6133 194.314L83.0456 196.882ZM95.2971 164.301L91.9958 160.999L88.6945 164.301L91.9958 167.603L95.2971 164.301ZM83.2657 222.639L85.3932 224.767L87.5207 222.639L85.3932 220.511L83.2657 222.639ZM83.5592 248.543L85.2465 250.231L86.9338 248.543L85.2465 246.855L83.5592 248.543ZM83.0456 209.798L85.4666 212.219L87.8875 209.798L85.4666 207.376L83.0456 209.798ZM83.4858 235.628L85.3199 237.462L87.1539 235.628L85.3199 233.793L83.4858 235.628ZM88.988 177.363L91.9958 180.372L95.0037 177.363L91.9958 174.354L88.988 177.363ZM89.3548 203.267L91.9224 205.835L94.4901 203.267L91.9224 200.698L89.3548 203.267ZM89.2814 190.425L92.0692 193.213L94.8569 190.425L92.0692 187.563L89.2814 190.425ZM89.6482 216.182L91.8491 218.383L94.0499 216.182L91.8491 213.98L89.6482 216.182ZM89.8683 229.17L91.8491 231.152L93.8298 229.17L91.8491 227.189L89.8683 229.17ZM90.0884 242.085L91.7757 243.773L93.463 242.085L91.7757 240.398L90.0884 242.085ZM76.6631 216.255L78.9373 218.53L81.2116 216.255L78.9373 213.98L76.6631 216.255ZM76.8832 229.17L78.864 231.152L80.9181 229.17L78.864 227.189L76.8832 229.17ZM77.1767 242.159L78.864 243.847L80.5513 242.159L78.864 240.398L77.1767 242.159ZM69.6937 183.821L72.4815 186.609L75.2692 183.821L72.4815 181.032L69.6937 183.821ZM69.547 170.832L72.5548 173.841L75.5627 170.832L72.5548 167.823L69.547 170.832ZM69.2535 157.77L72.4815 160.999L75.7094 157.77L72.4815 154.541L69.2535 157.77ZM88.7679 157.77L85.4666 154.468L82.1653 157.77L85.4666 161.072L88.7679 157.77ZM76.0762 177.29L79.0107 180.225L81.9452 177.29L79.0107 174.354L76.0762 177.29ZM76.2963 190.351L79.0841 193.14L81.8718 190.351L79.0841 187.563L76.2963 190.351ZM75.8561 164.301L79.0107 167.456L82.1653 164.301L79.0107 161.146L75.8561 164.301ZM76.5164 203.34L79.0841 205.908L81.6517 203.34L79.0841 200.772L76.5164 203.34ZM69.9872 196.809L72.5548 199.377L75.1225 196.809L72.5548 194.241L69.9872 196.809ZM36.0205 118.878L33.2327 116.089L30.445 118.878L33.2327 121.666L36.0205 118.878ZM24.4293 177.069L26.7769 179.418L29.1244 177.069L26.7035 174.721L24.4293 177.069ZM24.6494 190.131L26.8502 192.333L29.0511 190.131L26.8502 187.93L24.6494 190.131ZM24.2092 164.081L26.7769 166.649L29.3445 164.081L26.7769 161.513L24.2092 164.081ZM36.0205 131.5L33.2327 128.711L30.445 131.5L33.2327 134.288L36.0205 131.5ZM25.383 229.244L27.0703 230.931L28.7576 229.244L27.0703 227.556L25.383 229.244ZM36.0205 144.561L33.2327 141.773L30.445 144.561L33.2327 147.35L36.0205 144.561ZM25.6031 242.232L27.1437 243.773L28.6843 242.232L27.1437 240.691L25.6031 242.232ZM24.8694 203.267L26.9236 205.321L28.9777 203.267L26.9236 201.212L24.8694 203.267ZM25.1629 216.329L26.9969 218.163L28.831 216.329L26.9969 214.494L25.1629 216.329ZM24.2092 125.189L26.9969 127.977L29.7847 125.189L26.9969 122.4L24.2092 125.189ZM31.6921 222.786L33.5262 224.621L35.3602 222.786L33.5262 220.952L31.6921 222.786ZM31.9122 235.775L33.5995 237.462L35.2869 235.775L33.5995 234.087L31.9122 235.775ZM32.1323 248.763L33.6729 250.304L35.2135 248.763L33.6729 247.222L32.1323 248.763ZM31.2519 196.662L33.4528 198.864L35.6537 196.662L33.4528 194.461L31.2519 196.662ZM31.472 209.724L33.5262 211.779L35.5803 209.724L33.5262 207.669L31.472 209.724ZM19.0738 235.701L20.6144 237.242L22.155 235.701L20.6144 234.16L19.0738 235.701ZM19.2206 248.616L20.6144 250.011L22.0083 248.616L20.6144 247.222L19.2206 248.616ZM18.9271 222.713L20.6144 224.4L22.3018 222.713L20.6144 221.098L18.9271 222.713ZM18.5603 209.724L20.4677 211.632L22.3751 209.724L20.4677 207.816L18.5603 209.724ZM51.1331 229.39L53.1139 231.372L55.0947 229.39L53.1139 227.409L51.1331 229.39ZM18.2668 196.662L20.321 198.717L22.3751 196.662L20.321 194.608L18.2668 196.662ZM30.9585 183.6L33.3794 186.022L35.8004 183.6L33.3794 181.179L30.9585 183.6ZM29.2712 138.031L26.7035 135.462L24.1358 138.031L26.7035 140.599L29.2712 138.031ZM29.2712 151.019L26.7035 148.451L24.1358 151.019L26.7035 153.587L29.2712 151.019ZM17.7533 118.731L20.321 121.3L22.8887 118.731L20.321 116.163L17.7533 118.731ZM17.6799 157.55L20.2476 160.118L22.8153 157.55L20.2476 154.982L17.6799 157.55ZM17.9 170.538L20.2476 172.887L22.5952 170.538L20.2476 168.19L17.9 170.538ZM17.7533 131.646L20.321 134.215L22.8887 131.646L20.321 129.078L17.7533 131.646ZM18.1201 183.527L20.321 185.728L22.5218 183.527L20.321 181.326L18.1201 183.527ZM44.7506 235.921L46.5846 237.756L48.4187 235.921L46.5846 234.087L44.7506 235.921ZM44.5305 222.859L46.5846 224.914L48.6388 222.859L46.5846 220.805L44.5305 222.859ZM44.3104 209.798L46.5113 211.999L48.7121 209.798L46.5113 207.596L44.3104 209.798ZM43.8702 183.747L46.4379 186.315L49.0056 183.747L46.4379 181.179L43.8702 183.747ZM44.0903 196.809L46.4379 199.157L48.7855 196.809L46.4379 194.461L44.0903 196.809ZM43.5768 170.612L46.2912 173.327L49.0056 170.612L46.2912 167.897L43.5768 170.612ZM44.8239 248.69L46.5113 250.378L48.1986 248.69L46.5113 247.002L44.8239 248.69ZM43.3567 157.55L46.2178 160.412L49.0789 157.55L46.2178 154.688L43.3567 157.55ZM51.2798 242.232L52.9671 243.92L54.6545 242.232L52.9671 240.544L51.2798 242.232ZM30.7384 170.538L33.3061 173.107L35.8738 170.538L33.3061 167.97L30.7384 170.538ZM43.2833 144.561L46.2178 147.497L49.1523 144.561L46.2178 141.626L43.2833 144.561ZM56.1217 125.189L52.8938 121.96L49.6658 125.189L52.8938 128.418L56.1217 125.189ZM43.21 131.5L46.2178 134.508L49.2257 131.5L46.1445 128.491L43.21 131.5ZM43.21 118.878L46.2178 121.887L49.299 118.878L46.2912 115.869L43.21 118.878ZM38.2214 229.317L40.0554 231.152L41.8895 229.317L40.0554 227.482L38.2214 229.317ZM30.445 105.816L33.2327 108.605L36.0205 105.816L33.2327 103.028L30.445 105.816ZM30.5917 157.55L33.3061 160.265L36.0205 157.55L33.3061 154.835L30.5917 157.55ZM30.5917 92.8275L33.3061 95.5426L36.0205 92.8275L33.3061 90.1124L30.5917 92.8275ZM38.4414 242.306L40.1288 243.993L41.8161 242.306L40.1288 240.618L38.4414 242.306ZM37.2676 177.143L39.8353 179.711L42.403 177.143L39.8353 174.574L37.2676 177.143ZM36.9742 151.092L39.7619 153.881L42.5497 151.092L39.7619 148.304L36.9742 151.092ZM37.0476 164.081L39.7619 166.796L42.4763 164.081L39.7619 161.366L37.0476 164.081ZM36.9008 125.189L39.9087 128.197L42.9165 125.189L39.9087 122.18L36.9008 125.189ZM38.0013 216.255L40.0554 218.31L42.1095 216.255L40.0554 214.2L38.0013 216.255ZM37.7812 203.267L39.982 205.468L42.1829 203.267L39.982 201.065L37.7812 203.267ZM42.5497 138.031L39.7619 135.242L36.9742 138.031L39.7619 140.819L42.5497 138.031ZM37.5611 190.278L39.982 192.7L42.403 190.278L39.982 187.857L37.5611 190.278ZM146.797 86.2232L143.936 83.3613L141.075 86.2232L143.936 89.0851L146.797 86.2232ZM146.944 99.2851L143.936 96.2765L140.928 99.2851L143.936 102.294L146.944 99.2851ZM146.504 73.1613L143.789 70.4462L141.075 73.1613L143.789 75.8764L146.504 73.1613ZM146.284 60.0994L143.716 57.5311L141.148 60.0994L143.716 62.6678L146.284 60.0994ZM121.487 112.274L117.966 108.751L114.445 112.274L117.966 115.796L121.487 112.274ZM146.137 47.0375L143.789 44.6893L141.442 47.0375L143.789 49.3857L146.137 47.0375ZM107.695 118.805L111.363 122.474L115.032 118.805L111.363 115.135L107.695 118.805ZM147.017 112.347L144.01 109.338L140.928 112.42L143.936 115.429L147.017 112.347ZM153.18 79.7656L150.465 77.0505L147.751 79.7656L150.465 82.4808L153.18 79.7656ZM98.4517 89.2318L98.3783 89.1585L95.0037 92.534L98.3783 95.9096H98.4517L98.525 95.9829L101.9 92.6074L98.4517 89.2318ZM153.4 105.816L150.465 102.881L147.531 105.816L150.465 108.751L153.4 105.816ZM153.4 92.8275L150.465 89.9657L147.604 92.8275L150.465 95.6894L153.4 92.8275ZM145.624 20.9871L143.643 19.0058L141.662 20.9871L143.643 22.9684L145.624 20.9871ZM171.154 8.07196L169.613 6.53095L168.072 8.07196L169.613 9.61297L171.154 8.07196ZM145.477 8.07196L143.789 6.38419L142.102 8.07196L143.789 9.75973L145.477 8.07196ZM121.414 138.104L117.893 134.582L114.371 138.104L117.893 141.626L121.414 138.104ZM115.105 131.573L111.437 127.904L107.769 131.573L111.437 135.242L115.105 131.573ZM108.502 138.177L104.834 134.508L101.166 138.177L104.834 141.846L108.502 138.177ZM280.683 183.674L280.096 183.087L279.509 183.674L280.096 184.261L280.683 183.674ZM280.683 196.662L280.096 196.075L279.509 196.662L280.096 197.249L280.683 196.662ZM117.966 121.52L114.298 125.189L117.966 128.858L121.634 125.189L117.966 121.52ZM152.886 66.6304L150.319 64.062L147.751 66.6304L150.319 69.1987L152.886 66.6304ZM128.017 118.878L124.495 115.356L120.974 118.878L124.495 122.4L128.017 118.878ZM107.769 105.669L111.29 109.192L114.811 105.669L111.29 102.147L107.769 105.669ZM114.445 99.1383L117.819 102.514L121.194 99.1383L117.819 95.7628L114.445 99.1383ZM124.422 102.441L121.047 105.816L124.422 109.192L127.797 105.816L124.422 102.441ZM98.4517 114.842H98.3783L94.5635 118.731L98.3783 122.62L98.4517 122.547L98.525 122.62L102.413 118.731L98.4517 114.842ZM98.4517 101.927L98.3783 101.853L94.7102 105.523L98.3783 109.192L98.4517 109.118L98.525 109.192L102.193 105.523L98.4517 101.927ZM101.093 112.2L104.761 115.869L108.429 112.2L104.761 108.531L101.093 112.2ZM108.502 125.189L104.834 121.52L101.166 125.189L104.834 128.858L108.502 125.189ZM279.583 209.651L280.17 210.238L280.757 209.651L280.17 209.064L279.583 209.651ZM164.844 14.6029L163.157 12.9151L161.47 14.6029L163.157 16.2907L164.844 14.6029ZM165.138 27.5914L163.304 25.7569L161.396 27.5914L163.23 29.426L165.138 27.5914ZM164.624 1.61439L163.084 0.0733814L161.543 1.61439L163.084 3.1554L164.624 1.61439ZM165.285 40.5799L163.23 38.5253L161.176 40.5799L163.23 42.6346L165.285 40.5799ZM160.736 105.816L163.524 108.605L166.312 105.816L163.524 103.028L160.736 105.816ZM166.165 92.8275L163.451 90.1124L160.736 92.8275L163.451 95.5426L166.165 92.8275ZM165.798 66.7771L163.377 64.3555L160.956 66.7771L163.377 69.1987L165.798 66.7771ZM166.018 79.839L163.451 77.2707L160.883 79.839L163.451 82.4074L166.018 79.839ZM165.505 53.6418L163.304 51.4404L161.103 53.6418L163.304 55.9167L165.505 53.6418ZM172.327 73.3081L169.98 70.8865L167.632 73.2347L170.053 75.5829L172.327 73.3081ZM172.107 60.2462L169.906 58.0447L167.706 60.2462L169.906 62.4476L172.107 60.2462ZM171.3 21.1339L169.613 19.4461L167.926 21.1339L169.613 22.8216L171.3 21.1339ZM171.594 34.049L169.76 32.2145L167.926 34.049L169.76 35.8835L171.594 34.049ZM171.814 47.1109L169.76 45.0562L167.706 47.1109L169.76 49.1656L171.814 47.1109ZM101.166 99.065L104.687 102.587L108.209 99.065L104.687 95.5426L101.166 99.065ZM167.412 99.3585L169.98 101.927L172.547 99.3585L169.98 96.7901L167.412 99.3585ZM172.547 86.2966L169.98 83.7282L167.412 86.2966L169.98 88.8649L172.547 86.2966ZM158.755 34.049L156.701 31.9943L154.647 34.049L156.701 36.1037L158.755 34.049ZM159.782 99.2851L156.995 96.57L154.207 99.3585L156.995 102.147L159.782 99.2851ZM154.207 112.347L156.995 115.135L159.782 112.347L156.995 109.559L154.207 112.347ZM152.446 40.5799L150.245 38.3785L148.044 40.5799L150.245 42.7814L152.446 40.5799ZM152.226 27.518L150.172 25.4634L148.118 27.518L150.172 29.5727L152.226 27.518ZM151.933 1.68777L150.245 0L148.558 1.68777L150.245 3.37555L151.933 1.68777ZM152.006 14.4561L150.172 12.6216L148.338 14.4561L150.172 16.2907L152.006 14.4561ZM158.242 8.07196L156.555 6.38419L154.867 8.07196L156.555 9.75973L158.242 8.07196ZM158.535 21.0605L156.701 19.2259L154.867 21.0605L156.701 22.895L158.535 21.0605ZM158.902 47.1109L156.701 44.9094L154.5 47.1109L156.701 49.3123L158.902 47.1109ZM152.666 53.5685L150.319 51.2203L147.971 53.5685L150.319 55.9167L152.666 53.5685ZM159.196 60.0994L156.775 57.6778L154.354 60.0994L156.775 62.521L159.196 60.0994ZM159.489 73.2347L156.921 70.6663L154.354 73.2347L156.921 75.803L159.489 73.2347ZM159.709 86.2966L156.995 83.5815L154.28 86.2966L156.995 89.0117L159.709 86.2966ZM145.917 34.049L143.716 31.8475L141.515 34.049L143.716 36.2504L145.917 34.049ZM127.283 79.5455L124.275 76.5368L121.267 79.5455L124.275 82.5541L127.283 79.5455ZM127.503 92.6074L124.275 89.3786L121.121 92.6074L124.349 95.8362L127.503 92.6074ZM119.873 21.2072L117.893 19.2259L115.839 21.2072L117.893 23.1885L119.873 21.2072ZM120.094 34.1224L117.819 31.7742L115.545 34.049L117.819 36.3972L120.094 34.1224ZM127.063 66.557L124.275 63.7685L121.487 66.557L124.275 69.3455L127.063 66.557ZM119.58 8.21872L117.893 6.53095L116.205 8.21872L117.893 9.97988L119.58 8.21872ZM120.24 46.9641L117.673 44.4692L115.105 47.0375L117.673 49.6059L120.24 46.9641ZM126.476 27.5914L124.275 25.39L122.074 27.5914L124.275 29.7929L126.476 27.5914ZM126.549 40.5066L124.128 38.085L121.707 40.5066L124.128 42.9281L126.549 40.5066ZM126.769 53.4951L124.202 50.9267L121.634 53.4951L124.202 56.0634L126.769 53.4951ZM126.256 14.7497L124.349 12.8418L122.441 14.7497L124.349 16.6576L126.256 14.7497ZM126.109 1.76115L124.422 0.0733814L122.735 1.76115L124.422 3.44893L126.109 1.76115ZM101.46 86.0764L104.761 89.3786L108.062 86.0764L104.761 82.7743L101.46 86.0764ZM114.298 79.5455L111.29 76.4635L108.282 79.5455L111.29 82.6275L114.298 79.5455ZM114.004 66.557L111.217 63.7685L108.429 66.557L111.217 69.3455L114.004 66.557ZM113.711 53.4951L111.143 50.9267L108.649 53.4951L111.217 56.0634L113.711 53.4951ZM113.711 40.6533L111.29 38.2317L108.869 40.6533L111.29 43.0749L113.711 40.6533ZM120.46 60.026L117.673 57.2375L114.885 60.026L117.673 62.8145L120.46 60.026ZM134.106 99.2851L130.878 96.0563L127.65 99.2851L130.878 102.514L134.106 99.2851ZM113.491 27.7382L111.363 25.6101L109.236 27.7382L111.363 29.8662L113.491 27.7382ZM107.989 92.6074L111.29 95.9096L114.591 92.6074L111.29 89.3052L107.989 92.6074ZM120.9 86.0764L117.746 82.921L114.591 86.0764L117.746 89.2318L120.9 86.0764ZM120.754 73.0879L117.819 70.1527L114.885 73.0879L117.819 76.0232L120.754 73.0879ZM113.197 1.83454L111.51 0.146763L109.823 1.83454L111.51 3.52231L113.197 1.83454ZM113.271 14.7497L111.437 12.9151L109.603 14.7497L111.437 16.5842L113.271 14.7497ZM132.565 8.21872L130.878 6.53095L129.19 8.21872L130.878 9.9065L132.565 8.21872ZM127.797 144.635L124.422 141.259L121.047 144.635L124.422 148.01L127.797 144.635ZM124.495 128.051L120.974 131.573L124.495 135.095L128.017 131.573L124.495 128.051ZM108.282 151.313L104.761 147.79L101.239 151.313L104.761 154.835L108.282 151.313ZM134.399 125.189L130.951 121.74L127.503 125.189L130.951 128.638L134.399 125.189ZM114.811 144.708L111.29 141.186L107.769 144.708L111.29 148.231L114.811 144.708ZM121.121 151.239L117.746 147.864L114.371 151.239L117.746 154.615L121.121 151.239ZM140.782 118.805L137.48 115.502L134.179 118.805L137.48 122.107L140.782 118.805ZM274.301 151.386L273.494 150.579L272.687 151.386L273.494 152.193L274.301 151.386ZM272.76 177.29L273.567 178.097L274.447 177.29L273.641 176.482L272.76 177.29ZM280.537 131.94L279.95 131.353L279.363 131.94L279.95 132.527L280.537 131.94ZM272.76 73.0879L273.567 73.8951L274.447 73.0879L273.641 72.2807L272.76 73.0879ZM280.61 157.917L280.023 157.33L279.436 157.917L280.023 158.504L280.61 157.917ZM280.537 144.928L279.95 144.341L279.363 144.928L279.95 145.515L280.537 144.928ZM273.054 216.108L273.641 216.695L274.227 216.108L273.714 215.448L273.054 216.108ZM274.374 164.374L273.567 163.567L272.76 164.374L273.567 165.182L274.374 164.374ZM272.834 190.131L273.641 190.939L274.447 190.131L273.641 189.324L272.834 190.131ZM272.834 203.193L273.567 203.927L274.301 203.193L273.567 202.459L272.834 203.193ZM132.859 21.1339L130.804 19.0792L128.75 21.1339L130.804 23.1885L132.859 21.1339ZM280.683 170.832L280.096 170.245L279.509 170.832L280.096 171.419L280.683 170.832ZM133.886 86.1498L130.878 83.0678L127.87 86.1498L130.878 89.1585L133.886 86.1498ZM133.666 73.0879L130.804 70.226L127.943 73.0879L130.804 75.9498L133.666 73.0879ZM133.445 60.0994L130.731 57.3843L128.017 60.0994L130.731 62.8145L133.445 60.0994ZM133.299 47.0375L130.731 44.4692L128.163 47.0375L130.731 49.6059L133.299 47.0375ZM132.932 33.9756L130.658 31.7008L128.383 33.9756L130.658 36.2504L132.932 33.9756ZM140.635 105.816L137.48 102.661L134.326 105.816L137.48 108.971L140.635 105.816ZM139.828 53.5685L137.26 51.0001L134.693 53.5685L137.26 56.1368L139.828 53.5685ZM139.975 66.557L137.26 63.8419L134.546 66.557L137.26 69.2721L139.975 66.557ZM139.608 40.5066L137.26 38.1584L134.913 40.5066L137.26 42.8548L139.608 40.5066ZM139.241 27.518L137.114 25.39L134.986 27.518L137.114 29.6461L139.241 27.518ZM139.241 14.6763L137.26 12.695L135.353 14.6029L137.26 16.5842L139.241 14.6763ZM140.488 92.7542L137.48 89.7455L134.472 92.7542L137.554 95.7628L140.488 92.7542ZM140.195 79.6189L137.334 76.757L134.472 79.6189L137.334 82.4808L140.195 79.6189ZM127.65 112.347L130.951 115.649L134.252 112.347L130.951 109.045L127.65 112.347ZM139.094 1.68777L137.407 0L135.72 1.68777L137.407 3.37555L139.094 1.68777ZM280.683 53.7152L280.096 53.1282L279.509 53.7152L280.096 54.3023L280.683 53.7152ZM236.226 73.2347L234.759 71.7671L233.291 73.2347L234.759 74.7023L236.226 73.2347ZM242.315 118.511L241.068 117.264L239.821 118.511L241.068 119.759L242.315 118.511ZM239.894 105.523L241.141 106.77L242.388 105.523L241.141 104.275L239.894 105.523ZM242.462 79.6923L241.214 78.4448L239.967 79.6923L241.214 80.9397L242.462 79.6923ZM239.894 144.855L241.141 146.102L242.388 144.855L241.141 143.607L239.894 144.855ZM235.566 8.43887L234.832 7.70505L234.098 8.43887L234.832 9.17268L235.566 8.43887ZM236.226 86.2232L234.759 84.7556L233.291 86.2232L234.759 87.6908L236.226 86.2232ZM236.006 47.331L234.759 46.0835L233.511 47.331L234.759 48.5785L236.006 47.331ZM236.006 34.4159L234.905 33.3152L233.805 34.4159L234.905 35.5166L236.006 34.4159ZM235.786 21.4274L234.832 20.4734L233.952 21.4274L234.832 22.308L235.786 21.4274ZM242.388 92.6074L241.141 91.3599L239.894 92.6074L241.141 93.8549L242.388 92.6074ZM248.844 86.1498L247.597 84.9023L246.35 86.1498L247.597 87.3973L248.844 86.1498ZM223.387 112.053L221.7 110.366L220.013 112.053L221.7 113.741L223.387 112.053ZM246.35 111.907L247.597 113.154L248.844 111.907L247.597 110.659L246.35 111.907ZM248.917 60.3195L247.744 59.1454L246.57 60.3195L247.744 61.4937L248.917 60.3195ZM242.462 53.7886L241.288 52.6145L240.114 53.7886L241.288 54.9627L242.462 53.7886ZM248.771 47.2577L247.67 46.1569L246.57 47.2577L247.67 48.3584L248.771 47.2577ZM242.315 40.8001L241.214 39.6994L240.114 40.8001L241.214 41.9008L242.315 40.8001ZM242.315 27.9583L241.435 27.0044L240.554 27.9583L241.435 28.8389L242.315 27.9583ZM242.095 14.8964L241.361 14.1626L240.628 14.8964L241.361 15.6302L242.095 14.8964ZM229.55 40.8735L228.303 39.626L227.056 40.8735L228.303 42.121L229.55 40.8735ZM222.727 8.36549L221.773 7.41153L220.893 8.36549L221.847 9.31944L222.727 8.36549ZM222.947 21.354L221.847 20.2533L220.746 21.354L221.847 22.4547L222.947 21.354ZM229.623 118.511L228.156 117.043L226.689 118.511L228.156 119.979L229.623 118.511ZM226.835 157.77L228.303 159.238L229.77 157.77L228.303 156.302L226.835 157.77ZM223.167 34.3425L221.92 33.095L220.673 34.3425L221.92 35.59L223.167 34.3425ZM223.534 86.1498L221.847 84.462L220.159 86.1498L221.847 87.8376L223.534 86.1498ZM223.461 99.1383L221.773 97.4506L220.086 99.1383L221.773 100.826L223.461 99.1383ZM223.461 60.4663L221.92 58.9253L220.38 60.4663L221.92 62.0073L223.461 60.4663ZM223.167 47.331L221.773 45.9368L220.38 47.331L221.773 48.7253L223.167 47.331ZM236.152 99.065L234.685 97.5973L233.218 99.065L234.685 100.533L236.152 99.065ZM229.403 27.885L228.303 26.7842L227.202 27.885L228.303 28.9857L229.403 27.885ZM229.036 1.90792L228.303 1.10072L227.496 1.90792L228.229 2.64173L229.036 1.90792ZM229.256 14.9698L228.376 14.0892L227.422 14.9698L228.376 15.8504L229.256 14.9698ZM229.697 105.596L228.229 104.128L226.762 105.596L228.229 107.064L229.697 105.596ZM236.152 112.053L234.685 110.586L233.218 112.053L234.685 113.521L236.152 112.053ZM226.835 79.7656L228.303 81.2333L229.77 79.7656L228.303 78.298L226.835 79.7656ZM248.844 34.4893L247.964 33.5353L247.083 34.4893L247.964 35.3699L248.844 34.4893ZM228.303 94.1484L229.77 92.6808L228.303 91.2131L226.835 92.6808L228.303 94.1484ZM229.697 53.862L228.376 52.5411L227.056 53.862L228.376 55.1828L229.697 53.862ZM248.844 99.065L247.597 97.8175L246.35 99.065L247.597 100.312L248.844 99.065ZM274.374 47.1843L273.641 46.4505L272.907 47.1843L273.641 47.9181L274.374 47.1843ZM274.301 98.9916L273.494 98.1844L272.687 98.9916L273.494 99.7988L274.301 98.9916ZM274.447 60.1728L273.641 59.3656L272.834 60.1728L273.641 60.98L274.447 60.1728ZM280.537 118.438L279.95 117.851L279.363 118.438L279.95 119.025L280.537 118.438ZM248.624 21.5008L247.89 20.7669L247.157 21.5008L247.89 22.2346L248.624 21.5008ZM274.374 86.0764L273.567 85.2692L272.76 86.0764L273.567 86.8836L274.374 86.0764ZM267.992 40.8001L267.258 40.0663L266.524 40.8001L267.258 41.6073L267.992 40.8001ZM267.992 53.7886L267.185 52.9814L266.378 53.7886L267.185 54.5958L267.992 53.7886ZM280.61 105.523L280.023 104.935L279.436 105.523L280.023 106.11L280.61 105.523ZM274.301 111.98L273.494 111.173L272.687 111.98L273.494 112.787L274.301 111.98ZM280.61 92.4606L280.023 91.8736L279.436 92.4606L280.023 93.0477L280.61 92.4606ZM106.668 8.2921L104.981 6.60433L103.294 8.2921L104.981 9.97988L106.668 8.2921ZM280.683 79.5455L280.096 78.9584L279.509 79.5455L280.096 80.1325L280.683 79.5455ZM280.683 66.6304L280.096 66.0433L279.509 66.6304L280.096 67.2174L280.683 66.6304ZM267.038 93.3412L267.845 92.534L267.038 91.7268L266.231 92.534L267.038 93.3412ZM255.227 53.7152L254.273 52.7613L253.319 53.7152L254.273 54.7426L255.227 53.7152ZM255.153 92.534L254.126 91.5067L253.099 92.534L254.126 93.5613L255.153 92.534ZM255.153 27.9583L254.42 27.2245L253.686 27.9583L254.42 28.6921L255.153 27.9583ZM255.153 79.6189L254.126 78.5915L253.099 79.6189L254.126 80.6462L255.153 79.6189ZM255.153 40.8001L254.273 39.8461L253.319 40.8001L254.2 41.754L255.153 40.8001ZM254.126 117.337L253.099 118.364L254.126 119.392L255.153 118.364L254.126 117.337ZM255.153 105.523L254.126 104.495L253.099 105.523L254.126 106.55L255.153 105.523ZM253.026 131.94L254.053 132.967L255.08 131.94L254.053 130.912L253.026 131.94ZM267.845 105.523L267.038 104.715L266.231 105.523L267.038 106.33L267.845 105.523ZM267.845 118.511L267.038 117.704L266.231 118.511L267.038 119.318L267.845 118.511ZM267.992 79.6189L267.111 78.7383L266.304 79.5455L267.111 80.4261L267.992 79.6189ZM266.304 170.832L267.111 171.639L267.918 170.832L267.111 170.025L266.304 170.832ZM261.536 34.4159L260.802 33.6821L260.069 34.4159L260.802 35.1497L261.536 34.4159ZM261.609 86.0764L260.582 85.0491L259.555 86.0764L260.582 87.1038L261.609 86.0764ZM261.609 99.065L260.509 98.0376L259.482 99.065L260.509 100.092L261.609 99.065ZM261.609 111.98L260.509 110.953L259.482 111.98L260.509 113.007L261.609 111.98ZM261.609 47.2577L260.729 46.3771L259.775 47.331L260.655 48.2116L261.609 47.2577ZM261.756 60.2462L260.802 59.2922L259.848 60.2462L260.802 61.2001L261.756 60.2462ZM185.019 60.3195L182.965 58.2649L180.911 60.3195L182.965 62.3742L185.019 60.3195ZM191.622 118.658L189.421 116.456L187.22 118.658L189.421 120.859L191.622 118.658ZM184.505 34.1958L182.745 32.4346L180.984 34.1958L182.745 35.9569L184.505 34.1958ZM180.984 47.2577L182.892 49.1656L184.799 47.2577L182.892 45.3497L180.984 47.2577ZM191.768 105.743L189.494 103.468L187.22 105.743L189.494 108.017L191.768 105.743ZM184.065 8.14534L182.671 6.75109L181.278 8.14534L182.671 9.53959L184.065 8.14534ZM184.212 21.1339L182.671 19.5928L181.131 21.1339L182.671 22.6749L184.212 21.1339ZM190.521 14.6763L189.127 13.282L187.733 14.6763L189.127 16.0705L190.521 14.6763ZM190.448 1.61439L189.201 0.366907L187.954 1.61439L189.201 2.86188L190.448 1.61439ZM191.695 79.839L189.494 77.6376L187.293 79.839L189.494 82.0405L191.695 79.839ZM190.815 27.7382L189.201 26.1238L187.587 27.7382L189.201 29.3526L190.815 27.7382ZM191.548 66.8505L189.494 64.7958L187.44 66.8505L189.494 68.9052L191.548 66.8505ZM191.402 53.7886L189.567 51.9541L187.733 53.7886L189.567 55.6231L191.402 53.7886ZM191.108 40.8001L189.347 39.1123L187.587 40.8001L189.347 42.5612L191.108 40.8001ZM179.077 92.8275L176.509 90.2592L173.941 92.8275L176.509 95.3959L179.077 92.8275ZM185.166 73.3081L182.965 71.1066L180.764 73.3081L182.965 75.5095L185.166 73.3081ZM178.637 66.7771L176.436 64.5757L174.235 66.7771L176.436 68.9786L178.637 66.7771ZM179.003 118.731L176.436 116.163L173.868 118.731L176.436 121.3L179.003 118.731ZM178.49 53.7152L176.436 51.6605L174.382 53.7152L176.436 55.7699L178.49 53.7152ZM178.196 40.5799L176.289 38.672L174.382 40.5799L176.289 42.4879L178.196 40.5799ZM178.857 79.839L176.509 77.4908L174.161 79.839L176.509 82.1872L178.857 79.839ZM241.948 1.90792L241.361 1.32087L240.701 1.90792L241.288 2.49497L241.948 1.90792ZM255.007 14.9698L254.42 14.3828L253.833 14.9698L254.42 15.5569L255.007 14.9698ZM254.346 1.32087L254.933 1.90792L254.346 2.49497L253.759 1.90792L254.346 1.32087ZM267.918 27.885L267.331 27.2979L266.744 27.885L267.331 28.472L267.918 27.885ZM267.258 14.236L267.845 14.8231L267.258 15.4101L266.671 14.8231L267.258 14.236ZM267.258 1.24748L267.845 1.90792L267.258 2.49497L266.671 1.90792L267.258 1.24748ZM279.583 40.7267L280.17 41.3138L280.757 40.7267L280.17 40.1397L279.583 40.7267ZM280.83 27.7382L280.243 28.3252L279.656 27.7382L280.243 27.1511L280.83 27.7382ZM248.477 8.43887L247.89 7.85181L247.303 8.43887L247.89 9.02592L248.477 8.43887ZM261.536 21.5008L260.949 20.9137L260.362 21.5008L260.949 22.0878L261.536 21.5008ZM261.536 8.58563L260.949 9.17268L260.362 8.58563L260.949 7.99858L261.536 8.58563ZM274.374 34.2691L273.714 33.6821L273.127 34.2691L273.714 34.9296L274.374 34.2691ZM273.714 20.7669L274.301 21.354L273.714 21.9411L273.127 21.354L273.714 20.7669ZM273.714 7.85181L274.301 8.43887L273.714 9.02592L273.127 8.43887L273.714 7.85181ZM280.757 14.8231L280.17 15.4101L279.583 14.8231L280.17 14.236L280.757 14.8231ZM280.757 1.83454L280.17 2.42159L279.583 1.83454L280.17 1.24748L280.757 1.83454ZM177.903 27.6648L176.216 25.977L174.528 27.6648L176.216 29.3526L177.903 27.6648ZM185.386 86.37L183.038 84.0218L180.691 86.37L183.038 88.7915L185.386 86.37ZM185.386 112.274L182.965 109.852L180.544 112.274L182.965 114.695L185.386 112.274ZM177.683 14.6763L176.142 13.1353L174.602 14.6763L176.142 16.2173L177.683 14.6763ZM177.609 1.68777L176.216 0.293526L174.822 1.68777L176.216 3.08202L177.609 1.68777ZM203.8 27.8116L202.406 26.4173L201.012 27.8116L202.406 29.2058L203.8 27.8116ZM210.182 21.2806L208.935 20.0331L207.688 21.2806L208.935 22.5281L210.182 21.2806ZM198.151 99.2851L195.95 97.0837L193.749 99.2851L195.95 101.487L198.151 99.2851ZM210.329 34.3425L208.935 32.9483L207.541 34.3425L208.935 35.7368L210.329 34.3425ZM206.954 112.127L208.788 113.961L210.622 112.127L208.788 110.292L206.954 112.127ZM210.402 47.4044L208.862 45.8634L207.321 47.4044L208.862 48.9454L210.402 47.4044ZM210.842 86.2966L208.935 84.3887L206.954 86.2966L208.862 88.2045L210.842 86.2966ZM210.622 60.3929L208.935 58.7052L207.248 60.3929L208.935 62.0807L210.622 60.3929ZM210.696 99.2117L208.788 97.3038L206.881 99.2117L208.788 101.12L210.696 99.2117ZM216.711 40.8735L215.318 39.4792L213.924 40.8735L215.318 42.2677L216.711 40.8735ZM216.638 27.885L215.391 26.6375L214.144 27.885L215.391 29.0591L216.638 27.885ZM214.217 14.8231L215.318 15.9238L216.418 14.8231L215.318 13.7223L214.217 14.8231ZM216.125 1.76115L215.171 0.807196L214.217 1.76115L215.171 2.64173L216.125 1.76115ZM216.932 118.584L215.244 116.897L213.557 118.584L215.244 120.272L216.932 118.584ZM217.078 79.7656L215.391 78.0779L213.704 79.7656L215.391 81.4534L217.078 79.7656ZM216.932 105.669L215.244 103.982L213.484 105.669L215.171 107.357L216.932 105.669ZM217.005 92.6808L215.318 90.993L213.63 92.6808L215.318 94.3685L217.005 92.6808ZM216.932 53.9354L215.391 52.3944L213.85 53.9354L215.391 55.4764L216.932 53.9354ZM209.815 8.21872L208.715 7.118L207.615 8.21872L208.715 9.31944L209.815 8.21872ZM197.124 21.2072L195.73 19.813L194.336 21.2072L195.73 22.6015L197.124 21.2072ZM196.904 8.14534L195.657 6.89786L194.483 8.14534L195.73 9.39283L196.904 8.14534ZM198.004 73.3814L195.95 71.3268L193.896 73.3814L195.95 75.4361L198.004 73.3814ZM197.931 112.2L195.803 110.072L193.676 112.2L195.803 114.328L197.931 112.2ZM197.417 34.3425L195.877 32.7281L194.263 34.3425L195.877 35.9569L197.417 34.3425ZM197.564 47.4044L195.877 45.7166L194.189 47.4044L195.877 49.0922L197.564 47.4044ZM203.946 40.9468L202.406 39.4058L200.865 40.9468L202.406 42.4879L203.946 40.9468ZM203.506 14.6763L202.259 13.4288L201.012 14.6763L202.259 15.9238L203.506 14.6763ZM203.213 1.68777L202.112 0.587052L201.012 1.61439L202.112 2.71511L203.213 1.68777ZM204.313 118.658L202.332 116.676L200.352 118.658L202.332 120.639L204.313 118.658ZM204.46 92.8275L202.406 90.6995L200.352 92.7542L202.406 94.8088L204.46 92.8275ZM204.387 105.743L202.332 103.688L200.352 105.669L202.406 107.651L204.387 105.743ZM204.093 53.9354L202.406 52.2476L200.719 53.9354L202.406 55.6231L204.093 53.9354ZM204.387 66.8505L202.553 65.016L200.719 66.8505L202.553 68.685L204.387 66.8505ZM197.857 60.3195L195.95 58.4116L194.116 60.2462L195.95 62.0807L197.857 60.3195ZM147.531 144.561L150.465 147.497L153.4 144.561L150.465 141.626L147.531 144.561ZM147.458 131.5L150.465 134.508L153.473 131.5L150.465 128.491L147.458 131.5ZM147.458 118.878L150.539 121.887L153.547 118.878L150.539 115.869L147.458 118.878ZM148.044 209.798L150.245 211.999L152.446 209.798L150.245 207.596L148.044 209.798ZM147.604 157.55L150.465 160.412L153.327 157.55L150.392 154.688L147.604 157.55ZM154.207 138.031L156.995 140.819L159.782 138.031L156.995 135.242L154.207 138.031ZM147.751 183.747L150.319 186.315L152.886 183.747L150.319 181.179L147.751 183.747ZM147.751 170.612L150.465 173.327L153.18 170.612L150.465 167.897L147.751 170.612ZM154.427 190.278L156.848 192.7L159.269 190.278L156.848 187.857L154.427 190.278ZM154.427 177.143L156.995 179.711L159.562 177.143L156.995 174.574L154.427 177.143ZM154.28 151.092L157.068 153.881L159.856 151.092L157.068 148.304L154.28 151.092ZM154.574 203.267L156.775 205.468L158.975 203.267L156.775 201.065L154.574 203.267ZM154.28 164.081L156.995 166.796L159.709 164.081L156.995 161.366L154.28 164.081ZM154.867 242.306L156.555 243.993L158.242 242.306L156.555 240.618L154.867 242.306ZM154.647 216.329L156.701 218.383L158.755 216.329L156.701 214.274L154.647 216.329ZM148.118 222.859L150.172 224.914L152.226 222.859L150.172 220.805L148.118 222.859ZM154.794 229.317L156.628 231.152L158.462 229.317L156.628 227.482L154.794 229.317ZM147.824 196.809L150.172 199.157L152.52 196.809L150.172 194.461L147.824 196.809ZM141.662 229.39L143.643 231.372L145.624 229.39L143.643 227.409L141.662 229.39ZM142.102 242.232L143.789 243.92L145.477 242.232L143.789 240.544L142.102 242.232ZM141.442 216.329L143.643 218.53L145.844 216.329L143.643 214.127L141.442 216.329ZM141.148 190.278L143.716 192.846L146.284 190.278L143.716 187.71L141.148 190.278ZM141.369 203.34L143.716 205.688L146.064 203.34L143.716 200.992L141.369 203.34ZM141.075 177.29L143.789 180.005L146.504 177.29L143.789 174.574L141.075 177.29ZM141.002 151.092L144.01 154.101L147.017 151.092L144.01 148.084L141.002 151.092ZM134.179 131.573L137.48 134.875L140.782 131.573L137.48 128.271L134.179 131.573ZM148.558 248.763L150.245 250.451L151.933 248.69L150.245 247.002L148.558 248.763ZM148.338 235.921L150.172 237.756L152.006 235.921L150.172 234.087L148.338 235.921ZM141.075 164.154L143.936 167.016L146.797 164.154L143.936 161.292L141.075 164.154ZM140.928 138.031L143.936 141.039L146.944 138.031L143.936 135.022L140.928 138.031ZM140.635 125.189L143.863 128.418L147.091 125.189L143.863 121.96L140.635 125.189ZM167.485 151.019L170.053 153.587L172.621 151.019L170.053 148.451L167.485 151.019ZM167.412 164.081L169.98 166.649L172.547 164.081L169.98 161.513L167.412 164.081ZM167.485 138.031L170.053 140.599L172.621 138.031L170.053 135.462L167.485 138.031ZM167.559 177.069L169.906 179.418L172.254 177.069L169.906 174.721L167.559 177.069ZM167.485 112.42L170.053 114.989L172.621 112.42L170.053 109.852L167.485 112.42ZM179.003 131.646L176.436 129.078L173.868 131.646L176.436 134.215L179.003 131.646ZM168.072 242.232L169.613 243.773L171.154 242.232L169.613 240.691L168.072 242.232ZM167.999 229.244L169.686 230.931L171.374 229.244L169.686 227.556L167.999 229.244ZM167.706 203.267L169.76 205.321L171.814 203.267L169.76 201.212L167.706 203.267ZM167.632 190.131L169.833 192.333L172.034 190.131L169.833 187.93L167.632 190.131ZM167.852 216.329L169.686 218.163L171.52 216.329L169.686 214.494L167.852 216.329ZM174.235 183.527L176.436 185.728L178.637 183.527L176.436 181.326L174.235 183.527ZM174.455 222.713L176.142 224.4L177.83 222.713L176.142 221.025L174.455 222.713ZM174.382 209.724L176.289 211.632L178.196 209.724L176.289 207.816L174.382 209.724ZM174.822 248.69L176.216 250.084L177.609 248.69L176.216 247.295L174.822 248.69ZM174.308 196.589L176.362 198.644L178.416 196.589L176.362 194.534L174.308 196.589ZM153.84 125.189L156.848 128.197L159.856 125.189L156.848 122.18L153.84 125.189ZM161.47 235.775L163.157 237.462L164.844 235.775L163.157 234.087L161.47 235.775ZM161.543 248.836L163.084 250.378L164.624 248.836L163.084 247.295L161.543 248.836ZM161.25 209.798L163.304 211.852L165.358 209.798L163.304 207.743L161.25 209.798ZM161.396 222.786L163.23 224.621L165.138 222.713L163.304 220.878L161.396 222.786ZM161.103 196.736L163.304 198.937L165.505 196.736L163.304 194.534L161.103 196.736ZM172.547 125.189L169.76 122.4L166.972 125.189L169.76 127.977L172.547 125.189ZM160.736 118.878L163.524 121.666L166.312 118.878L163.524 116.089L160.736 118.878ZM160.736 157.55L163.451 160.265L166.165 157.55L163.451 154.835L160.736 157.55ZM160.736 131.5L163.524 134.288L166.312 131.5L163.524 128.711L160.736 131.5ZM160.883 170.538L163.451 173.107L166.018 170.538L163.451 167.97L160.883 170.538ZM161.03 183.6L163.451 186.022L165.872 183.6L163.451 181.179L161.03 183.6ZM160.736 144.561L163.524 147.35L166.312 144.561L163.524 141.773L160.736 144.561ZM174.602 235.701L176.142 237.242L177.683 235.701L176.142 234.16L174.602 235.701ZM109.529 235.628L111.363 237.462L113.197 235.628L111.363 233.793L109.529 235.628ZM109.749 248.543L111.437 250.231L113.124 248.543L111.437 246.855L109.749 248.543ZM109.236 222.713L111.363 224.841L113.491 222.713L111.363 220.585L109.236 222.713ZM108.869 209.724L111.29 212.146L113.711 209.724L111.29 207.303L108.869 209.724ZM115.472 216.255L117.746 218.53L120.02 216.255L117.746 213.98L115.472 216.255ZM101.386 164.301L104.687 167.603L107.989 164.301L104.687 160.999L101.386 164.301ZM108.649 196.882L111.217 199.451L113.784 196.882L111.217 194.314L108.649 196.882ZM116.279 242.159L117.966 243.847L119.653 242.159L117.966 240.471L116.279 242.159ZM115.912 229.17L117.966 231.152L119.947 229.17L117.893 227.189L115.912 229.17ZM101.68 177.363L104.761 180.372L107.769 177.363L104.761 174.354L101.68 177.363ZM107.989 157.77L111.29 161.072L114.591 157.77L111.29 154.468L107.989 157.77ZM108.209 170.832L111.217 173.841L114.225 170.832L111.143 167.75L108.209 170.832ZM108.429 183.821L111.217 186.609L114.004 183.821L111.217 181.032L108.429 183.821ZM100.359 235.554L98.4517 233.647H98.3783L98.3049 233.573L96.3975 235.481L98.3049 237.389L98.3783 237.316L98.4517 237.389L100.359 235.554ZM101.239 183.894L98.3783 181.032H98.3049L98.2316 180.959L95.4438 183.821L98.3049 186.682H98.3783L98.4517 186.756L101.239 183.894ZM100.139 248.543L98.4517 246.855L98.3783 246.929L98.3049 246.855L96.6176 248.543L98.3049 250.231L98.3783 250.157L98.4517 250.231L100.139 248.543ZM100.726 209.724L98.3783 207.376L98.3049 207.303L95.9574 209.651L98.3049 211.999L98.3783 211.926L98.4517 211.999L100.726 209.724ZM101.019 196.809L98.4517 194.241L98.3783 194.314L98.3049 194.241L95.7373 196.809L98.3049 199.377H98.3783L98.4517 199.451L101.019 196.809ZM100.579 222.639L98.4517 220.511L98.3783 220.585L98.3049 220.511L96.1775 222.639L98.3049 224.767L98.3783 224.694L98.4517 224.767L100.579 222.639ZM103 229.097L104.981 231.078L106.962 229.097L104.981 227.116L103 229.097ZM101.9 190.425L104.687 193.213L107.475 190.425L104.614 187.563L101.9 190.425ZM103.367 242.012L105.054 243.7L106.742 242.012L104.981 240.398L103.367 242.012ZM102.267 203.267L104.834 205.835L107.402 203.267L104.834 200.698L102.267 203.267ZM102.707 216.108L104.908 218.31L107.108 216.108L104.908 213.907L102.707 216.108ZM98.4517 167.677L98.3783 167.75L95.2971 170.832L98.3783 173.914H98.4517L98.525 173.987L101.606 170.905L98.4517 167.677ZM134.399 157.623L137.407 160.632L140.415 157.623L137.407 154.615L134.399 157.623ZM127.723 138.031L131.024 141.333L134.326 138.031L131.024 134.728L127.723 138.031ZM127.797 164.228L130.804 167.236L133.812 164.228L130.804 161.219L127.797 164.228ZM127.723 151.092L130.951 154.321L134.179 151.092L130.951 147.937L127.723 151.092ZM129.19 242.159L130.878 243.847L132.565 242.159L130.878 240.471L129.19 242.159ZM128.017 190.278L130.731 192.993L133.445 190.278L130.731 187.563L128.017 190.278ZM127.87 177.29L130.731 180.151L133.592 177.29L130.731 174.428L127.87 177.29ZM128.75 229.244L130.804 231.298L132.859 229.244L130.804 227.189L128.75 229.244ZM128.383 216.402L130.658 218.677L132.932 216.402L130.658 214.127L128.383 216.402ZM128.163 203.34L130.731 205.908L133.299 203.34L130.731 200.772L128.163 203.34ZM134.693 196.809L137.26 199.377L139.828 196.809L137.26 194.241L134.693 196.809ZM134.546 183.821L137.26 186.536L139.975 183.821L137.26 181.105L134.546 183.821ZM134.399 170.759L137.26 173.621L140.121 170.759L137.26 167.897L134.399 170.759ZM134.326 144.561L137.48 147.717L140.635 144.561L137.48 141.406L134.326 144.561ZM134.839 209.871L137.187 212.219L139.534 209.871L137.187 207.523L134.839 209.871ZM135.72 248.69L137.407 250.378L139.094 248.69L137.407 247.002L135.72 248.69ZM135.059 222.933L137.187 225.061L139.314 222.933L137.187 220.805L135.059 222.933ZM135.353 235.775L137.26 237.683L139.168 235.775L137.26 233.793L135.353 235.775ZM121.267 170.832L124.275 173.841L127.283 170.832L124.275 167.823L121.267 170.832ZM122.735 248.616L124.422 250.304L126.109 248.616L124.422 246.929L122.735 248.616ZM106.888 21.2072L104.908 19.2259L102.927 21.2072L104.908 23.1885L106.888 21.2072ZM122.441 235.628L124.349 237.536L126.256 235.628L124.349 233.72L122.441 235.628ZM114.811 177.29L117.746 180.225L120.68 177.29L117.746 174.354L114.811 177.29ZM114.591 164.301L117.746 167.456L120.9 164.301L117.746 161.146L114.591 164.301ZM121.487 183.821L124.275 186.609L127.063 183.821L124.275 181.032L121.487 183.821ZM122.074 222.713L124.275 224.914L126.476 222.713L124.275 220.511L122.074 222.713ZM121.121 157.77L124.349 160.999L127.576 157.77L124.349 154.541L121.121 157.77ZM121.781 209.871L124.202 212.293L126.623 209.871L124.202 207.449L121.781 209.871ZM121.707 196.809L124.275 199.377L126.843 196.809L124.275 194.241L121.707 196.809ZM115.105 203.413L117.673 205.982L120.24 203.413L117.673 200.845L115.105 203.413ZM114.958 190.351L117.746 193.14L120.534 190.351L117.746 187.563L114.958 190.351ZM233.511 189.985L234.832 191.305L236.152 189.985L234.832 188.664L233.511 189.985ZM234.098 241.939L234.832 242.672L235.566 241.939L234.832 241.205L234.098 241.939ZM233.585 203.046L234.832 204.294L236.079 203.046L234.832 201.799L233.585 203.046ZM233.878 215.962L234.979 217.062L236.079 215.962L234.979 214.861L233.878 215.962ZM233.952 228.95L234.832 229.904L235.786 228.95L234.832 228.07L233.952 228.95ZM236.226 177.143L234.759 175.675L233.291 177.143L234.759 178.61L236.226 177.143ZM226.762 66.8505L228.303 68.3915L229.843 66.8505L228.303 65.3095L226.762 66.8505ZM236.152 125.189L234.538 123.574L232.924 125.189L234.538 126.803L236.152 125.189ZM236.152 164.154L234.685 162.687L233.218 164.154L234.685 165.622L236.152 164.154ZM236.152 151.313L234.685 149.845L233.218 151.313L234.685 152.78L236.152 151.313ZM236.152 138.324L234.685 136.856L233.218 138.324L234.685 139.792L236.152 138.324ZM240.481 222.419L241.361 223.373L242.315 222.419L241.361 221.539L240.481 222.419ZM240.554 235.481L241.288 236.215L242.021 235.481L241.288 234.747L240.554 235.481ZM240.187 209.577L241.288 210.678L242.388 209.577L241.288 208.477L240.187 209.577ZM239.967 183.6L241.288 184.921L242.608 183.6L241.288 182.28L239.967 183.6ZM240.114 196.516L241.288 197.69L242.462 196.516L241.288 195.341L240.114 196.516ZM242.462 170.685L241.214 169.438L239.967 170.685L241.214 171.933L242.462 170.685ZM242.388 157.77L241.141 156.523L239.894 157.77L241.141 159.018L242.388 157.77ZM240.701 248.47L241.288 249.057L241.875 248.47L241.288 247.883L240.701 248.47ZM242.315 131.866L241.068 130.619L239.821 131.866L241.068 133.114L242.315 131.866ZM233.511 60.3929L234.832 61.7138L236.152 60.3929L234.832 59.0721L233.511 60.3929ZM226.835 183.527L228.376 185.068L229.917 183.527L228.376 181.986L226.835 183.527ZM220.82 229.023L221.92 230.124L223.021 229.023L221.92 227.923L220.82 229.023ZM220.673 216.035L221.92 217.282L223.167 216.035L221.92 214.788L220.673 216.035ZM220.893 242.012L221.847 242.966L222.801 242.012L221.847 241.058L220.893 242.012ZM220.453 189.911L221.994 191.452L223.534 189.911L221.994 188.37L220.453 189.911ZM220.453 203.046L221.847 204.441L223.241 203.046L221.847 201.652L220.453 203.046ZM223.534 164.228L221.847 162.54L220.159 164.228L221.847 165.915L223.534 164.228ZM223.387 138.324L221.7 136.636L220.013 138.324L221.7 140.012L223.387 138.324ZM223.461 151.239L221.773 149.551L220.086 151.239L221.773 152.927L223.461 151.239ZM220.159 177.069L221.847 178.757L223.534 177.069L221.847 175.382L220.159 177.069ZM239.967 66.7771L241.288 68.098L242.608 66.7771L241.288 65.4562L239.967 66.7771ZM220.159 73.3081L221.847 74.9958L223.534 73.3081L221.847 71.6203L220.159 73.3081ZM227.349 222.493L228.449 223.593L229.55 222.493L228.449 221.392L227.349 222.493ZM227.056 209.577L228.303 210.825L229.55 209.577L228.303 208.33L227.056 209.577ZM226.982 196.516L228.376 197.836L229.697 196.516L228.376 195.195L226.982 196.516ZM227.496 248.47L228.229 249.277L229.036 248.47L228.303 247.736L227.496 248.47ZM227.422 235.408L228.376 236.288L229.256 235.408L228.376 234.527L227.422 235.408ZM229.623 131.793L228.156 130.325L226.689 131.793L228.156 133.261L229.623 131.793ZM229.623 144.782L228.156 143.314L226.689 144.782L228.156 146.249L229.623 144.782ZM229.697 170.612L228.229 169.144L226.762 170.612L228.229 172.079L229.697 170.612ZM247.23 241.939L247.817 242.526L248.404 241.939L247.817 241.352L247.23 241.939ZM267.772 131.866L266.965 131.059L266.158 131.866L266.965 132.674L267.772 131.866ZM259.628 73.0879L260.655 74.1153L261.682 73.0879L260.655 72.0606L259.628 73.0879ZM259.628 177.29L260.655 178.317L261.682 177.29L260.655 176.262L259.628 177.29ZM266.671 222.493L267.258 223.08L267.845 222.493L267.258 221.905L266.671 222.493ZM267.845 157.844L267.038 157.036L266.231 157.844L267.038 158.651L267.845 157.844ZM267.845 144.855L267.038 144.048L266.231 144.855L267.038 145.662L267.845 144.855ZM260.289 228.877L260.875 229.464L261.462 228.877L260.875 228.29L260.289 228.877ZM261.609 164.301L260.582 163.274L259.555 164.301L260.582 165.328L261.609 164.301ZM259.702 190.131L260.655 191.085L261.609 190.131L260.655 189.177L259.702 190.131ZM248.917 125.189L247.524 123.868L246.203 125.189L247.597 126.583L248.917 125.189ZM259.775 203.12L260.655 204L261.609 203.046L260.655 202.166L259.775 203.12ZM274.301 138.397L273.494 137.59L272.687 138.397L273.494 139.205L274.301 138.397ZM107.769 73.0145L104.761 69.9325L101.753 73.0145L104.761 76.0966L107.769 73.0145ZM107.475 59.9526L104.687 57.1642L101.9 59.9526L104.687 62.8145L107.475 59.9526ZM107.108 34.1958L104.908 31.9943L102.707 34.1958L104.908 36.3972L107.108 34.1958ZM266.451 209.577L267.185 210.311L267.918 209.577L267.185 208.844L266.451 209.577ZM261.536 151.313L260.509 150.285L259.482 151.313L260.509 152.34L261.536 151.313ZM107.328 47.1109L104.761 44.5425L102.193 47.1109L104.761 49.6792L107.328 47.1109ZM267.918 196.662L267.111 195.855L266.378 196.662L267.185 197.469L267.918 196.662ZM174.088 170.538L176.436 172.887L178.783 170.538L176.436 168.19L174.088 170.538ZM274.374 125.189L273.494 124.308L272.613 125.189L273.494 126.069L274.374 125.189ZM266.304 66.7037L267.111 67.5843L267.918 66.7037L267.038 65.8232L266.304 66.7037ZM259.995 216.035L260.729 216.769L261.462 216.035L260.729 215.301L259.995 216.035ZM247.083 228.95L247.817 229.684L248.551 228.95L247.817 228.216L247.083 228.95ZM247.01 215.888L247.89 216.842L248.844 215.888L247.89 215.008L247.01 215.888ZM248.771 203.12L247.67 202.019L246.57 203.12L247.67 204.221L248.771 203.12ZM246.423 73.2347L247.67 74.4822L248.917 73.2347L247.67 71.9872L246.423 73.2347ZM246.57 190.058L247.744 191.232L248.917 190.058L247.744 188.884L246.57 190.058ZM246.423 177.143L247.67 178.39L248.917 177.143L247.67 175.895L246.423 177.143ZM248.844 151.313L247.597 150.065L246.35 151.313L247.597 152.56L248.844 151.313ZM247.597 139.645L248.844 138.397L247.597 137.15L246.35 138.397L247.597 139.645ZM223.461 125.189L221.627 123.354L219.793 125.189L221.627 127.023L223.461 125.189ZM248.844 164.228L247.597 162.98L246.35 164.228L247.597 165.475L248.844 164.228ZM253.099 66.7771L254.2 67.8778L255.3 66.7771L254.2 65.6764L253.099 66.7771ZM255.153 209.577L254.273 208.697L253.393 209.577L254.273 210.458L255.153 209.577ZM253.246 196.589L254.2 197.543L255.153 196.589L254.2 195.635L253.246 196.589ZM253.099 183.674L254.2 184.774L255.3 183.674L254.2 182.573L253.099 183.674ZM261.609 125.189L260.509 124.088L259.408 125.189L260.509 126.289L261.609 125.189ZM255.08 144.855L254.053 143.828L253.026 144.855L254.053 145.882L255.08 144.855ZM261.536 138.397L260.509 137.37L259.482 138.397L260.509 139.425L261.536 138.397ZM253.613 222.346L254.346 223.08L255.08 222.346L254.346 221.612L253.613 222.346ZM255.153 170.759L254.126 169.731L253.099 170.759L254.126 171.786L255.153 170.759ZM255.153 157.77L254.126 156.743L253.099 157.77L254.126 158.797L255.153 157.77ZM253.759 235.408L254.346 235.995L254.933 235.408L254.346 234.821L253.759 235.408ZM266.304 183.674L267.111 184.481L267.918 183.674L267.111 182.793L266.304 183.674ZM187.587 196.589L189.421 198.423L191.255 196.589L189.421 194.754L187.587 196.589ZM187.44 183.527L189.494 185.582L191.548 183.527L189.494 181.472L187.44 183.527ZM187.587 209.577L189.347 211.339L191.108 209.577L189.347 207.816L187.587 209.577ZM187.293 157.477L189.567 159.751L191.842 157.477L189.567 155.202L187.293 157.477ZM187.293 170.465L189.494 172.667L191.695 170.465L189.494 168.264L187.293 170.465ZM187.293 92.8275L189.567 95.1024L191.842 92.8275L189.567 90.5527L187.293 92.8275ZM187.587 222.639L189.201 224.254L190.815 222.639L189.274 221.025L187.587 222.639ZM187.954 248.763L189.201 250.011L190.448 248.763L189.201 247.516L187.954 248.763ZM187.807 235.701L189.201 237.095L190.595 235.701L189.201 234.307L187.807 235.701ZM194.263 229.17L195.657 230.565L197.05 229.17L195.657 227.776L194.263 229.17ZM194.483 242.232L195.73 243.48L196.977 242.232L195.73 240.985L194.483 242.232ZM194.263 216.035L195.877 217.649L197.491 216.035L195.877 214.421L194.263 216.035ZM198.004 125.189L195.73 122.914L193.456 125.189L195.73 127.464L198.004 125.189ZM198.077 151.092L195.877 148.891L193.676 151.092L195.877 153.294L198.077 151.092ZM197.931 138.177L195.803 136.049L193.676 138.177L195.803 140.305L197.931 138.177ZM191.548 131.72L189.347 129.518L187.147 131.72L189.347 133.921L191.548 131.72ZM181.278 242.159L182.671 243.553L184.065 242.159L182.671 240.765L181.278 242.159ZM173.941 144.488L176.509 147.056L179.077 144.488L176.509 141.92L173.941 144.488ZM173.941 157.55L176.509 160.118L179.077 157.55L176.509 154.982L173.941 157.55ZM185.312 125.189L182.745 122.694L180.25 125.189L182.745 127.684L185.312 125.189ZM174.015 105.889L176.582 108.458L179.15 105.889L176.582 103.321L174.015 105.889ZM185.386 138.104L182.965 135.682L180.544 138.104L182.965 140.525L185.386 138.104ZM180.617 151.019L183.038 153.441L185.459 151.019L183.038 148.597L180.617 151.019ZM180.617 99.4319L183.038 101.853L185.459 99.4319L183.038 97.0103L180.617 99.4319ZM180.617 164.008L182.965 166.356L185.312 164.008L182.965 161.659L180.617 164.008ZM194.189 202.973L195.877 204.661L197.564 202.973L195.877 201.285L194.189 202.973ZM181.131 229.17L182.671 230.711L184.212 229.17L182.671 227.629L181.131 229.17ZM191.695 144.561L189.421 142.287L187.147 144.635L189.421 146.91L191.695 144.561ZM180.984 216.182L182.745 217.943L184.505 216.182L182.818 214.421L180.984 216.182ZM180.984 203.12L182.892 205.028L184.799 203.12L182.892 201.212L180.984 203.12ZM180.911 190.058L182.965 192.113L185.019 190.058L182.965 188.003L180.911 190.058ZM180.764 177.069L182.965 179.271L185.166 177.069L182.965 174.868L180.764 177.069ZM216.932 144.708L215.244 143.02L213.557 144.708L215.244 146.396L216.932 144.708ZM207.321 202.973L208.862 204.514L210.402 202.973L208.862 201.432L207.321 202.973ZM207.248 176.996L209.082 178.831L210.916 176.996L209.082 175.162L207.248 176.996ZM207.248 189.911L208.935 191.599L210.622 189.911L208.935 188.297L207.248 189.911ZM216.932 131.793L215.244 130.105L213.557 131.793L215.244 133.481L216.932 131.793ZM213.777 66.9239L215.464 68.6117L217.152 66.9239L215.464 65.2361L213.777 66.9239ZM207.174 73.3814L209.008 75.216L210.842 73.3814L209.008 71.5469L207.174 73.3814ZM207.468 215.962L208.862 217.356L210.256 215.962L208.862 214.567L207.468 215.962ZM207.615 242.159L208.715 243.26L209.815 242.159L208.715 241.058L207.615 242.159ZM194.043 190.058L195.95 191.966L197.784 190.131L195.95 188.223L194.043 190.058ZM217.005 157.697L215.318 156.009L213.63 157.697L215.318 159.385L217.005 157.697ZM213.924 209.504L215.318 210.898L216.711 209.504L215.391 208.11L213.924 209.504ZM214.144 222.566L215.391 223.813L216.638 222.566L215.464 221.318L214.144 222.566ZM213.777 183.454L215.464 185.141L217.152 183.454L215.464 181.766L213.777 183.454ZM214.217 235.554L215.318 236.655L216.418 235.554L215.318 234.454L214.217 235.554ZM213.85 196.442L215.391 197.983L216.932 196.442L215.464 194.901L213.85 196.442ZM217.078 170.612L215.391 168.924L213.704 170.612L215.391 172.3L217.078 170.612ZM214.217 248.616L215.171 249.57L216.125 248.616L215.244 247.736L214.217 248.616ZM207.615 229.023L208.862 230.271L210.109 229.023L208.862 227.776L207.615 229.023ZM204.46 157.55L202.406 155.495L200.352 157.623L202.406 159.678L204.46 157.55ZM204.313 144.635L202.259 142.654L200.278 144.708L202.332 146.763L204.313 144.635ZM201.085 248.763L202.186 249.864L203.286 248.763L202.186 247.662L201.085 248.763ZM193.896 163.934L196.023 166.062L198.151 163.934L196.023 161.806L193.896 163.934ZM210.842 164.081L208.935 162.173L206.954 164.081L208.862 165.989L210.842 164.081ZM204.24 131.72L202.259 129.738L200.278 131.72L202.259 133.701L204.24 131.72ZM193.896 86.37L196.023 88.498L198.151 86.37L196.023 84.2419L193.896 86.37ZM193.896 176.996L195.95 179.051L198.004 176.996L195.95 174.941L193.896 176.996ZM200.939 235.701L202.186 236.949L203.433 235.701L202.186 234.454L200.939 235.701ZM200.498 79.9124L202.553 81.8937L204.533 79.9124L202.553 77.9311L200.498 79.9124ZM-57.0027 1.9813L-57.5896 2.56835L-58.1765 1.9813L-57.5896 1.39425L-57.0027 1.9813ZM-69.9145 14.8964L-70.5014 15.4835L-71.0883 14.8964L-70.5014 14.3094L-69.9145 14.8964ZM-69.9145 1.90792L-70.5014 2.49497L-71.0883 1.90792L-70.5014 1.32087L-69.9145 1.90792ZM-83.4131 27.1511L-82.8262 27.7382L-83.4131 28.3252L-84 27.7382L-83.4131 27.1511ZM-64.1189 7.99858L-63.532 8.58563L-64.1189 9.17268L-64.7058 8.58563L-64.1189 7.99858ZM-76.3703 21.354L-76.9572 22.0144L-77.5441 21.4274L-76.9572 20.8403L-76.3703 21.354ZM-76.3703 8.51225L-76.9572 9.0993L-77.5441 8.51225L-76.9572 7.9252L-76.3703 8.51225ZM-83.4131 14.1626L-82.8262 14.8231L-83.4131 15.4101L-84 14.8231L-83.4131 14.1626ZM-83.4131 1.1741L-82.8262 1.83454L-83.4131 2.42159L-84 1.83454L-83.4131 1.1741ZM-57.5896 249.057L-58.1765 248.47L-57.5896 247.883L-57.0027 248.47L-57.5896 249.057ZM-70.5014 236.068L-71.0883 235.481L-70.5014 234.894L-69.9145 235.481L-70.5014 236.068ZM-70.5014 249.13L-71.0883 248.47L-70.5014 247.883L-69.9145 248.47L-70.5014 249.13ZM-84 222.639L-83.4131 222.052L-82.8262 222.639L-83.4131 223.226L-84 222.639ZM-64.7791 241.792L-64.1922 241.205L-63.6053 241.792L-64.1922 242.379L-64.7791 241.792ZM-76.9572 229.611L-77.5441 229.023L-76.9572 228.436L-76.3703 229.023L-76.9572 229.611ZM-76.9572 242.452L-77.5441 241.865L-76.9572 241.278L-76.3703 241.865L-76.9572 242.452ZM-84 235.554L-83.4131 234.967L-82.8262 235.554L-83.4131 236.141L-84 235.554ZM-84 248.543L-83.4131 247.956L-82.8262 248.543L-83.4131 249.13L-84 248.543ZM253.759 248.396L254.346 247.809L254.933 248.396L254.346 248.983L253.759 248.396ZM266.671 235.481L267.258 234.894L267.845 235.481L267.258 236.068L266.671 235.481ZM266.671 248.47L267.258 247.883L267.845 248.47L267.258 249.057L266.671 248.47ZM280.17 223.226L279.583 222.639L280.17 222.052L280.757 222.639L280.17 223.226ZM260.875 242.379L260.289 241.792L260.875 241.205L261.462 241.792L260.875 242.379ZM273.127 228.95L273.714 228.363L274.301 228.95L273.714 229.537L273.127 228.95ZM273.127 241.865L273.714 241.278L274.301 241.865L273.714 242.452L273.127 241.865ZM280.243 236.141L279.656 235.554L280.243 234.967L280.83 235.554L280.243 236.141ZM280.243 249.13L279.656 248.543L280.243 247.956L280.83 248.543L280.243 249.13ZM200.572 170.465L202.553 172.446L204.533 170.465L202.553 168.484L200.572 170.465ZM210.696 151.166L208.788 149.258L206.881 151.166L208.788 153.074L210.696 151.166ZM208.788 140.085L210.622 138.251L208.788 136.416L206.954 138.251L208.788 140.085ZM210.696 125.189L208.642 123.134L206.587 125.189L208.642 127.243L210.696 125.189ZM200.865 209.504L202.406 211.045L203.946 209.504L202.406 207.963L200.865 209.504ZM200.939 222.566L202.332 223.96L203.726 222.566L202.332 221.172L200.939 222.566ZM200.645 183.527L202.479 185.362L204.313 183.527L202.479 181.692L200.645 183.527ZM200.719 196.516L202.406 198.203L204.093 196.516L202.406 194.828L200.719 196.516Z" fill="url(#paint0_radial)"/>
<defs>
<radialGradient id="paint0_radial" cx="0" cy="0" r="1" gradientUnits="userSpaceOnUse" gradientTransform="translate(98.415 125.225) scale(156.442 156.483)">
<stop stop-color="#929AA5"/>
<stop offset="1" stop-color="#929AA5" stop-opacity="0.3"/>
</radialGradient>
</defs>
</svg>
